<?xml version="1.0" standalone="no"?>
<!DOCTYPE svg PUBLIC "-//W3C//DTD SVG 20010904//EN"
 "http://www.w3.org/TR/2001/REC-SVG-20010904/DTD/svg10.dtd">
<svg version="1.0" xmlns="http://www.w3.org/2000/svg"
 width="1280.000000pt" height="1170.000000pt" viewBox="0 0 1280.000000 1170.000000"
 preserveAspectRatio="xMidYMid meet">
<metadata>
Created by potrace 1.15, written by Peter Selinger 2001-2017
</metadata>
<g transform="translate(0.000000,1170.000000) scale(0.100000,-0.100000)"
fill="#673ab7" stroke="none">
<path d="M8793 11632 c-6 -37 -21 -93 -33 -125 -21 -56 -24 -59 -116 -113
-118 -69 -223 -164 -218 -196 19 -136 54 -257 97 -333 30 -55 46 -98 66 -180
23 -98 28 -175 17 -272 l-8 -63 247 0 247 0 -6 38 c-3 20 -9 89 -12 153 -8
134 5 229 40 304 67 143 87 210 100 336 l6 57 -78 59 c-42 33 -102 73 -132 88
-95 47 -116 68 -139 137 -11 35 -23 88 -27 118 -5 43 -10 56 -23 57 -14 1 -20
-12 -28 -65z m246 -390 c28 -31 51 -63 51 -70 0 -7 -9 -30 -20 -52 -11 -22
-20 -46 -20 -55 0 -20 -80 -115 -97 -115 -7 0 -13 -5 -13 -11 0 -5 -4 -7 -10
-4 -16 10 -11 54 9 83 44 62 52 209 14 272 -50 85 -207 75 -245 -15 -26 -62
-3 -199 38 -230 7 -5 16 -29 20 -52 5 -35 3 -43 -14 -52 -15 -8 -27 -7 -50 5
-31 15 -92 88 -92 109 0 6 -13 32 -30 58 -16 26 -30 54 -30 62 0 19 88 112
185 194 l80 67 87 -68 c48 -38 110 -94 137 -126z"/>
<path d="M2425 11548 c-12 -29 -14 -30 -15 -10 0 13 -4 20 -10 17 -5 -3 -10
-30 -10 -58 0 -29 -7 -88 -16 -132 -17 -89 -13 -199 12 -298 l14 -58 -39 -49
c-35 -45 -39 -55 -45 -132 -4 -46 -9 -107 -12 -135 l-6 -53 -69 0 c-80 0 -163
-16 -179 -35 -8 -9 -7 -51 1 -152 14 -171 11 -188 -36 -197 -56 -11 -30 -26
44 -26 l68 0 6 118 c4 64 4 134 0 155 -7 43 -6 44 77 17 38 -12 90 -20 134
-20 69 0 73 -1 131 -45 83 -62 160 -101 227 -114 74 -16 220 -68 229 -82 4 -7
29 -14 56 -16 40 -4 51 -2 56 11 5 13 -2 21 -28 32 -19 7 -37 14 -39 14 -3 0
-39 22 -81 49 -53 35 -90 52 -123 56 -68 9 -86 19 -158 83 -43 38 -70 71 -81
100 -9 24 -28 51 -42 60 -14 8 -32 22 -38 31 -17 20 -16 72 1 96 13 17 14 17
27 -10 8 -16 19 -30 24 -32 6 -2 32 12 60 29 37 25 51 41 57 68 5 19 13 44 18
55 12 27 23 176 15 207 -5 20 -17 29 -51 38 -25 7 -47 16 -49 20 -9 14 -78
-14 -83 -33 -6 -24 -25 -16 -33 14 -4 13 -7 85 -8 161 l-1 136 43 32 c37 29
39 32 15 26 -32 -7 -35 4 -13 44 9 18 10 29 3 37 -18 22 -38 14 -53 -19z"/>
<path d="M9810 11523 c-8 -4 -20 -13 -27 -22 -28 -36 -70 -191 -52 -191 20 0
-1 -34 -28 -45 -23 -10 -33 -22 -37 -47 -4 -18 -11 -51 -17 -74 -6 -22 -9 -54
-7 -70 3 -26 7 -29 36 -27 26 1 32 -2 28 -15 -3 -10 -10 -36 -15 -58 -14 -52
-21 -58 -110 -88 -132 -45 -187 -100 -146 -146 10 -11 23 -20 29 -20 6 0 29
-9 50 -21 27 -14 42 -17 49 -10 6 6 37 11 68 11 133 0 141 -18 135 -306 -3
-138 -1 -214 5 -216 6 -2 -11 -41 -38 -86 -77 -132 -93 -165 -93 -189 0 -12
20 -62 46 -110 41 -81 45 -95 50 -178 11 -212 12 -293 2 -336 -9 -35 -8 -61 1
-105 7 -33 17 -86 22 -119 15 -96 9 -91 100 -92 l80 0 -51 34 c-28 19 -55 45
-60 59 -6 14 -10 70 -10 124 0 80 5 114 25 175 15 44 27 104 28 143 l3 67 63
40 c113 71 184 137 197 180 12 45 18 47 157 66 51 6 116 18 146 25 30 7 59 11
64 7 13 -8 120 8 111 17 -5 4 -38 11 -74 14 -36 3 -94 9 -130 12 -45 4 -84 1
-126 -10 -77 -20 -97 -20 -140 0 -43 21 -47 59 -8 74 23 9 25 14 18 42 -9 43
-51 108 -69 108 -8 0 -29 13 -48 29 -18 17 -58 39 -88 51 -30 11 -64 32 -77
46 -23 26 -23 26 -44 8 -16 -14 -20 -15 -16 -4 3 8 13 39 22 68 10 30 24 52
32 52 11 0 14 22 14 111 0 94 4 122 27 187 22 63 26 93 25 167 0 50 -3 104 -6
120 -7 38 8 65 26 47 18 -18 46 -14 53 8 8 26 -5 179 -17 203 -5 10 -25 25
-44 33 -39 16 -40 19 -18 62 11 23 12 36 5 51 -6 11 -11 33 -11 49 0 27 -28
76 -55 94 -12 9 -34 9 -55 1z m-26 -759 c9 -24 4 -26 -43 -18 -49 8 -54 21 -8
27 17 2 35 5 38 5 4 1 10 -5 13 -14z m169 -612 c24 -16 36 -31 32 -39 -3 -8
-5 -21 -5 -29 0 -8 -8 -14 -19 -14 -35 0 -46 -26 -32 -80 7 -27 10 -54 6 -60
-3 -5 -2 -10 3 -10 15 0 22 27 22 82 l0 51 23 -25 c13 -14 32 -30 42 -36 19
-10 18 -13 -13 -74 -17 -34 -45 -80 -62 -100 -29 -35 -34 -37 -76 -34 -40 3
-49 9 -72 42 -14 22 -38 54 -53 72 l-27 34 22 23 c11 12 34 57 50 99 16 43 35
76 42 76 8 0 16 16 20 40 l7 41 26 -17 c14 -10 43 -29 64 -42z"/>
<path d="M3966 11351 c-3 -4 -15 -48 -27 -97 -17 -73 -19 -106 -14 -181 6 -78
4 -101 -13 -150 -19 -55 -20 -65 -7 -153 7 -52 11 -98 9 -102 -2 -3 -34 -20
-70 -37 -91 -42 -124 -68 -124 -95 0 -30 26 -53 91 -77 30 -12 73 -34 97 -50
24 -16 47 -29 51 -29 5 0 18 -27 30 -60 12 -32 26 -62 31 -65 6 -4 10 -43 10
-89 0 -90 -7 -104 -63 -125 -44 -17 -24 -28 45 -27 l63 2 2 44 c1 24 6 46 12
49 9 6 11 52 8 281 -1 47 3 119 7 161 6 55 5 86 -5 115 -7 21 -12 49 -10 61 1
12 -2 38 -7 57 -12 41 1 112 24 137 14 15 13 22 -10 67 -27 53 -86 264 -86
308 0 44 -29 80 -44 55z m24 -153 c0 -20 -4 -40 -10 -43 -6 -4 -10 16 -10 52
0 41 3 54 10 43 5 -8 10 -32 10 -52z m-6 -701 c5 -26 7 -50 3 -53 -7 -7 -103
65 -99 74 3 9 64 31 77 28 6 -1 14 -24 19 -49z"/>
<path d="M4765 11327 c-2 -6 -6 -34 -10 -60 -7 -55 -39 -153 -57 -174 -6 -8
-48 -36 -92 -61 -115 -66 -216 -155 -216 -190 0 -87 54 -264 113 -372 54 -98
87 -321 64 -437 l-9 -43 251 0 c142 0 252 -4 256 -9 3 -5 -3 -12 -12 -14 -17
-4 -17 -5 0 -6 10 0 16 -5 13 -10 -3 -4 12 -13 33 -20 21 -6 67 -30 102 -54
40 -26 92 -50 138 -62 58 -16 75 -25 82 -43 14 -36 164 -172 191 -172 7 0 24
-7 36 -16 21 -15 22 -20 17 -118 -3 -56 -1 -131 4 -167 6 -35 14 -110 17 -166
l7 -102 -49 -23 -49 -22 79 -7 c44 -5 82 -6 85 -4 2 3 5 92 7 197 2 149 6 201
18 229 8 21 23 72 32 115 8 44 20 85 26 91 6 7 8 25 5 40 -4 23 9 42 96 135
106 113 126 140 127 172 0 28 -67 230 -102 306 l-30 65 -22 -26 c-11 -15 -28
-40 -38 -57 -9 -17 -48 -51 -86 -76 -39 -26 -78 -59 -88 -74 -24 -36 -115
-132 -125 -132 -5 0 -14 20 -20 44 -15 61 -48 90 -91 82 -49 -9 -57 -18 -67
-71 -12 -63 -1 -93 36 -97 21 -2 29 -9 31 -27 4 -24 3 -24 -75 -19 -43 3 -91
12 -108 21 -16 9 -73 35 -125 59 -52 23 -98 47 -102 52 -11 16 -28 154 -28
231 0 87 23 203 49 254 50 93 81 192 91 286 9 73 8 100 -1 111 -23 27 -145
112 -218 150 -45 24 -81 50 -92 68 -17 29 -43 117 -54 188 -5 35 -32 59 -40
35z m110 -327 c89 -70 174 -162 175 -189 0 -29 -51 -141 -80 -173 -17 -18 -30
-36 -30 -40 0 -5 -9 -8 -20 -8 -11 0 -20 -6 -21 -12 0 -7 -5 -3 -11 8 -8 18
-4 35 21 88 56 116 40 251 -36 296 -21 12 -52 20 -82 20 -65 0 -120 -45 -128
-107 -10 -72 6 -153 34 -181 32 -32 43 -101 19 -121 -13 -11 -22 -11 -51 3
-19 9 -40 27 -46 39 -7 12 -15 24 -19 27 -5 3 -26 41 -49 84 -48 92 -48 91 43
181 49 49 176 154 186 155 3 0 46 -32 95 -70z m1068 -925 c3 -44 7 -91 9 -104
2 -20 -7 -32 -47 -62 -90 -69 -158 -99 -217 -96 -48 3 -53 6 -56 28 -2 15 8
41 24 64 15 22 43 68 63 102 23 40 61 84 105 122 68 58 70 59 92 43 19 -15 23
-29 27 -97z"/>
<path d="M1516 11242 c-3 -5 -15 -53 -27 -107 -17 -79 -20 -115 -14 -184 5
-70 3 -94 -11 -129 -14 -36 -16 -61 -10 -135 3 -51 9 -101 12 -112 4 -17 -7
-27 -76 -60 -45 -22 -90 -48 -101 -58 -41 -38 -12 -85 72 -112 59 -20 169 -90
169 -108 0 -8 11 -36 25 -63 20 -40 25 -64 25 -126 0 -84 -9 -102 -62 -120
-44 -16 -23 -27 47 -26 l65 1 0 41 c0 23 4 46 9 51 9 9 10 44 8 290 0 55 5
123 12 151 11 45 10 58 -7 107 -10 32 -16 57 -12 57 4 0 2 24 -5 53 -13 56 -5
115 21 154 13 21 12 28 -12 75 -28 54 -83 261 -84 310 0 15 -7 34 -16 42 -18
18 -21 19 -28 8z m24 -158 c0 -24 -4 -44 -10 -44 -5 0 -10 23 -10 51 0 31 4
48 10 44 6 -3 10 -26 10 -51z m-5 -705 c4 -27 5 -52 4 -53 -2 -2 -28 14 -58
37 l-54 40 29 13 c58 25 71 19 79 -37z"/>
<path d="M3541 11171 c-15 -28 -14 -53 5 -79 8 -12 13 -31 9 -42 -6 -18 -8
-18 -39 -3 -28 13 -40 14 -67 4 -39 -13 -42 -11 -63 56 -24 74 -35 79 -93 49
-26 -13 -64 -40 -82 -60 -19 -20 -42 -36 -52 -36 -25 0 -69 -39 -63 -55 4 -8
-31 -52 -91 -112 -136 -139 -134 -144 95 -273 35 -19 64 -39 65 -45 2 -5 12
-41 23 -80 53 -182 56 -202 57 -430 l2 -220 101 -3 c119 -3 129 7 47 44 -79
34 -83 46 -60 207 11 73 20 195 21 271 2 130 3 140 22 147 11 4 23 12 27 18 3
6 11 9 16 5 12 -7 59 22 59 38 0 6 12 27 27 46 37 49 52 97 53 167 0 33 7 78
15 100 20 57 20 218 -1 250 -9 13 -13 29 -10 34 4 5 2 12 -3 16 -6 3 -15 -3
-20 -14z m-227 -115 c3 -14 4 -30 1 -38 -14 -38 -21 -204 -10 -235 6 -19 2
-24 -21 -34 -17 -6 -52 -8 -84 -4 -55 6 -160 33 -160 40 0 4 59 107 65 113 1
1 13 5 25 7 35 7 44 20 30 44 -6 12 -8 30 -5 40 9 30 96 83 146 90 4 1 10 -10
13 -23z"/>
<path d="M10701 11123 c-27 -56 -115 -213 -148 -262 -45 -66 -38 -119 30 -235
24 -43 29 -62 33 -145 7 -138 6 -309 -1 -363 -5 -31 -2 -65 9 -101 9 -30 16
-68 16 -84 0 -15 5 -44 10 -64 l10 -35 80 -1 81 0 -51 34 c-28 19 -55 45 -60
59 -6 14 -10 71 -10 126 0 82 5 115 25 173 14 42 26 100 27 141 l3 69 63 40
c116 73 186 137 198 181 10 38 13 39 70 51 90 18 309 47 402 52 7 1 10 6 6 12
-3 6 -20 9 -36 7 -17 -3 -56 1 -87 8 -76 18 -139 17 -223 -3 -62 -15 -75 -15
-111 -2 -34 11 -43 19 -45 41 -3 22 2 30 23 38 24 9 26 14 19 42 -9 44 -51
108 -70 108 -9 0 -33 15 -54 33 -21 18 -61 41 -89 51 -30 10 -61 30 -75 48
l-23 30 -22 -49z m132 -101 c30 -20 36 -29 31 -46 -8 -26 -23 -54 -24 -43 0 4
-10 3 -21 -4 -19 -9 -20 -16 -14 -52 4 -23 8 -52 8 -64 1 -13 5 -23 8 -23 12
0 19 31 19 80 l0 48 28 -27 c15 -15 34 -30 42 -33 12 -4 9 -16 -17 -69 -18
-35 -46 -81 -63 -101 -29 -35 -34 -37 -76 -34 -40 3 -49 9 -71 42 -15 22 -39
54 -54 71 l-28 33 22 24 c12 13 35 58 51 100 16 43 35 76 42 76 8 0 16 16 20
40 l7 41 26 -17 c14 -10 43 -29 64 -42z"/>
<path d="M8040 11034 c-19 -6 -35 -30 -56 -86 -19 -52 -33 -128 -24 -128 19 0
3 -34 -21 -44 -16 -5 -32 -22 -38 -36 -17 -46 -33 -135 -30 -160 3 -21 9 -25
37 -23 26 1 32 -2 28 -15 -3 -10 -10 -35 -15 -57 -16 -58 -18 -60 -104 -89
-124 -42 -178 -86 -163 -133 8 -25 125 -78 139 -64 15 15 126 14 156 -2 44
-22 52 -70 47 -299 l-4 -208 22 0 c12 0 30 6 40 13 17 12 17 14 2 20 -21 8
-20 31 4 111 13 42 26 66 35 66 12 0 15 20 15 109 0 96 4 121 31 202 31 93 33
142 14 274 -7 46 7 61 38 40 24 -16 26 -15 37 5 8 15 9 50 5 108 -7 86 -24
132 -48 132 -7 0 -22 6 -32 14 -16 11 -17 17 -7 29 28 34 8 154 -33 197 -27
29 -41 33 -75 24z m-22 -771 c2 -8 -5 -13 -20 -13 -36 0 -68 11 -62 22 8 13
77 5 82 -9z"/>
<path d="M7326 10788 l-14 -33 -2 30 c-1 17 -13 -42 -25 -129 -25 -167 -23
-252 7 -368 l12 -47 -42 -46 c-34 -36 -42 -52 -42 -83 0 -30 -16 -224 -19
-228 -1 -1 -45 -4 -98 -6 -58 -2 -110 -10 -128 -19 l-30 -14 5 -85 c3 -47 5
-123 5 -170 l0 -85 -37 -3 c-21 -2 -38 -7 -38 -12 0 -14 40 -22 99 -18 l53 3
2 152 c1 103 5 153 12 153 6 0 37 -9 69 -20 38 -13 84 -20 132 -20 70 0 77 -2
116 -34 64 -51 180 -113 229 -121 65 -11 221 -66 235 -82 15 -19 114 -24 120
-6 3 8 -14 21 -41 33 -25 10 -72 37 -104 58 -64 43 -110 62 -156 62 -17 1 -41
6 -53 13 -43 24 -150 136 -157 164 -4 15 -27 46 -52 69 -45 42 -52 62 -34 108
13 34 26 33 39 -4 5 -16 14 -30 18 -30 5 0 30 15 57 33 41 27 51 41 66 87 20
63 35 196 26 237 -5 22 -17 32 -59 49 -45 17 -58 19 -87 9 -19 -7 -36 -19 -38
-28 -6 -29 -21 -19 -31 21 -13 43 -14 271 -3 290 5 6 24 24 43 38 33 26 33 26
7 20 -32 -7 -34 -1 -12 44 14 27 14 34 3 41 -25 16 -39 10 -53 -23z"/>
<path d="M11760 10428 c-11 -13 -23 -34 -27 -48 -3 -14 -10 -30 -15 -37 -12
-15 -27 -114 -16 -107 4 3 8 -3 8 -14 0 -11 -12 -24 -32 -33 -19 -8 -35 -24
-39 -39 -21 -76 -31 -141 -25 -165 6 -23 10 -26 36 -20 17 4 30 4 30 0 0 -21
-33 -115 -43 -122 -7 -6 -42 -19 -80 -31 -83 -27 -144 -64 -159 -98 -16 -34
-5 -47 67 -83 54 -28 61 -29 77 -14 14 12 29 14 75 9 85 -10 90 -13 108 -59
13 -35 15 -76 12 -250 l-4 -207 22 0 c13 0 31 3 40 6 15 6 14 8 -1 25 -16 18
-16 23 1 86 10 37 28 76 40 88 20 18 21 27 17 112 -4 84 -2 101 28 193 33 99
33 102 24 203 -6 56 -8 110 -6 119 4 16 6 16 28 1 20 -13 27 -13 40 -2 14 11
15 28 9 109 -8 106 -15 126 -47 136 -40 12 -49 24 -36 48 17 29 20 63 8 71 -5
3 -10 22 -10 42 0 82 -82 132 -130 81z m-2 -745 c4 -14 -53 -18 -85 -6 -15 6
-13 9 12 14 41 10 68 6 73 -8z"/>
<path d="M864 10222 c-6 -37 -22 -94 -35 -126 -23 -57 -27 -61 -109 -108 -102
-57 -207 -144 -216 -178 -17 -57 45 -279 106 -383 53 -89 87 -322 66 -439 l-9
-48 248 0 247 0 -6 43 c-18 130 -18 276 -1 353 9 43 23 89 30 100 38 60 86
208 95 296 l10 93 -37 34 c-53 46 -137 103 -209 139 -33 17 -68 41 -76 54 -17
26 -44 122 -53 188 -5 33 -11 46 -24 47 -13 1 -19 -12 -27 -65z m257 -398 c27
-35 39 -60 36 -71 -27 -83 -48 -126 -82 -166 -22 -26 -45 -47 -52 -47 -7 0
-13 -5 -13 -11 0 -5 -4 -7 -10 -4 -15 9 -12 61 5 75 43 35 57 209 22 276 -24
46 -83 74 -138 66 -82 -13 -131 -75 -122 -156 9 -88 15 -109 39 -131 16 -14
26 -38 30 -68 6 -39 4 -47 -14 -56 -26 -14 -73 9 -92 44 -7 14 -17 25 -21 25
-4 0 -26 38 -49 85 l-43 86 40 47 c22 26 82 84 134 128 l93 82 98 -76 c54 -41
116 -99 139 -128z"/>
<path d="M2460 10144 c-33 -56 -58 -81 -118 -121 -29 -20 -80 -69 -113 -109
-72 -88 -109 -114 -109 -76 -1 38 -38 101 -65 108 -34 8 -94 -19 -97 -43 -1
-10 -2 -25 -3 -33 0 -8 -4 -21 -8 -27 -13 -20 20 -72 41 -66 21 5 47 -21 37
-37 -11 -18 -134 -12 -179 9 -23 10 -81 37 -129 60 -79 36 -90 39 -104 26 -8
-8 -10 -15 -4 -15 6 0 11 -6 11 -14 0 -8 15 -16 34 -19 19 -3 61 -24 94 -47
35 -23 93 -50 137 -63 61 -19 79 -29 94 -53 26 -43 152 -154 181 -160 14 -3
34 -13 45 -22 18 -16 20 -29 20 -157 0 -77 4 -199 9 -271 l9 -130 -39 -15
c-38 -15 -40 -14 -74 11 -19 15 -61 37 -93 50 -38 15 -63 31 -70 47 -10 22
-11 22 -29 7 -10 -10 -18 -23 -18 -30 0 -14 -113 -217 -141 -253 -48 -61 -41
-132 24 -236 21 -34 32 -64 33 -95 11 -274 12 -360 3 -393 -7 -26 -6 -55 2
-95 6 -31 16 -90 23 -129 7 -40 16 -76 20 -80 4 -4 41 -8 83 -8 72 -1 75 0 52
14 -13 9 -40 30 -59 48 l-35 31 -3 109 c-4 99 -1 117 22 183 15 40 29 106 33
147 l6 75 97 64 c109 71 160 122 160 160 0 31 15 36 155 58 61 9 129 22 152
28 23 6 52 8 65 5 26 -7 108 3 108 13 0 8 -61 16 -208 26 -62 5 -97 2 -142
-10 -61 -17 -98 -14 -137 10 -31 20 -29 52 3 64 20 8 25 16 23 38 -2 15 -8 34
-14 42 -6 8 -16 27 -23 43 l-12 27 56 -6 56 -7 -7 40 c-3 23 -1 77 5 121 9 60
9 93 1 133 -10 46 -9 60 10 118 28 83 60 216 63 261 2 22 13 46 32 66 16 17
61 66 101 107 113 119 112 114 62 265 -51 156 -65 190 -88 221 l-18 23 -23
-38z m10 -114 c16 -16 20 -34 20 -87 1 -40 7 -78 15 -93 8 -14 14 -28 15 -32
0 -10 -114 -89 -175 -122 -40 -21 -61 -26 -105 -24 l-55 3 3 34 c2 18 18 54
37 80 18 25 40 62 50 81 13 26 157 177 173 180 1 0 11 -9 22 -20z m-443 -1156
c32 -21 60 -38 61 -40 2 -1 1 -16 -3 -33 -4 -21 -13 -31 -25 -31 -32 0 -44
-26 -31 -69 6 -21 11 -49 11 -62 1 -45 19 4 22 58 l3 51 32 -28 c17 -15 36
-29 43 -32 14 -4 -53 -127 -95 -173 -27 -30 -34 -32 -73 -28 -33 4 -47 12 -59
32 -9 14 -32 45 -50 68 l-34 42 25 38 c13 21 34 66 46 100 14 40 29 63 41 66
14 4 19 14 19 41 0 20 2 36 5 36 2 0 31 -16 62 -36z"/>
<path d="M9086 10134 c-10 -27 -7 -59 9 -81 8 -12 12 -28 9 -37 -7 -18 -30
-21 -40 -5 -4 7 -25 9 -59 4 l-53 -6 -16 54 c-22 74 -36 85 -85 62 -22 -9 -61
-37 -88 -61 -26 -24 -55 -44 -64 -44 -21 0 -50 -22 -52 -41 -5 -29 -39 -74
-104 -133 -35 -32 -70 -71 -79 -88 -14 -27 -14 -32 0 -53 9 -13 37 -36 63 -51
124 -69 185 -108 188 -118 1 -6 12 -45 23 -86 68 -251 66 -237 54 -314 -8 -50
-8 -84 -1 -116 6 -25 9 -82 6 -128 -5 -80 -4 -82 19 -88 13 -3 40 -3 59 0 19
4 51 4 70 0 l36 -6 -46 -49 c-76 -81 -60 -116 85 -189 107 -54 123 -71 147
-156 66 -242 66 -243 58 -307 -4 -34 -7 -69 -6 -77 1 -8 3 -71 5 -140 l5 -125
101 -5 101 -5 -67 -115 c-93 -160 -104 -182 -104 -202 0 -25 29 -94 63 -152
30 -52 29 -45 42 -336 2 -52 -1 -117 -8 -143 -8 -37 -8 -61 2 -105 7 -31 17
-82 21 -112 13 -100 16 -103 66 -96 24 3 55 1 70 -4 49 -19 46 2 -6 37 -28 19
-55 45 -60 59 -6 14 -10 70 -10 124 0 80 5 115 25 174 14 41 26 103 28 138 1
34 6 68 10 74 3 6 38 31 77 54 103 62 166 122 177 168 8 36 11 37 68 49 86 17
222 36 280 39 75 4 135 15 129 25 -3 5 -22 9 -42 8 -20 -1 -74 4 -120 12 -67
11 -93 11 -140 0 -103 -22 -126 -24 -165 -8 -47 20 -53 62 -11 77 23 9 25 14
18 42 -10 47 -51 108 -73 108 -10 0 -26 9 -37 21 -21 24 -105 69 -128 69 -8 0
-26 14 -40 31 -26 31 -42 31 -54 -1 -6 -16 -12 -15 -69 11 -79 35 -82 46 -58
214 10 72 19 192 20 268 l1 139 30 13 c16 7 40 16 54 19 18 4 37 27 69 82 39
68 45 85 49 153 2 42 10 95 18 119 20 61 18 202 -3 249 -23 50 -23 50 -33 33
-14 -22 -12 -58 5 -84 19 -29 10 -61 -14 -49 -9 4 -41 7 -72 7 l-56 -2 -18 60
c-10 33 -24 62 -32 65 -22 8 -93 -28 -138 -70 -22 -20 -51 -40 -65 -43 -31 -8
-61 -34 -54 -45 6 -10 -55 -99 -66 -99 -16 0 -119 52 -130 66 -15 17 -7 157
15 269 7 39 13 121 12 187 -2 117 -2 118 25 138 15 11 38 20 51 20 20 0 33 16
73 83 46 77 49 87 51 156 1 40 8 88 15 105 18 43 16 220 -2 269 -16 40 -25 46
-34 21z m-231 -191 c-9 -135 -9 -175 -1 -199 6 -17 2 -22 -28 -31 -19 -6 -52
-9 -73 -7 -53 6 -163 35 -163 43 0 4 15 31 33 61 25 43 38 56 61 58 27 3 28 5
22 46 -6 37 -3 45 23 70 27 26 89 55 119 56 11 0 12 -19 7 -97z m436 -980 c3
-33 -5 -124 -17 -209 -4 -26 -2 -44 5 -48 6 -4 11 -15 11 -25 0 -21 -35 -31
-104 -31 -37 0 -136 23 -159 37 -4 2 7 31 25 64 24 44 38 59 54 59 29 0 44 20
33 45 -4 11 -8 26 -8 32 -1 20 56 67 97 80 52 16 62 15 63 -4z m311 -1312 c10
-9 -4 -60 -17 -62 -36 -4 -47 -21 -40 -62 4 -23 8 -52 8 -64 1 -13 5 -23 8
-23 12 0 19 31 19 80 l0 48 28 -27 c15 -15 34 -30 42 -33 12 -4 9 -16 -17 -69
-18 -35 -46 -81 -63 -101 -29 -35 -34 -37 -76 -34 -40 3 -49 8 -71 42 -14 22
-39 53 -55 70 l-29 31 23 26 c13 14 36 59 52 101 16 43 35 76 42 76 8 0 16 16
20 40 l6 39 57 -36 c31 -19 59 -38 63 -42z"/>
<path d="M11011 10111 c-12 -12 -21 -27 -22 -33 -1 -7 -4 -2 -8 12 -4 16 -14
-27 -29 -130 -19 -132 -20 -168 -12 -245 6 -49 16 -107 22 -128 11 -35 10 -39
-19 -70 -45 -47 -50 -63 -57 -162 -4 -49 -9 -106 -12 -126 l-5 -36 -94 -6
c-52 -4 -111 -13 -131 -22 -35 -14 -36 -17 -31 -53 3 -20 9 -94 13 -163 7
-122 6 -127 -14 -138 -11 -6 -31 -11 -43 -11 -16 0 -20 -3 -13 -10 6 -6 41
-10 79 -8 l67 3 2 147 c1 147 1 148 24 148 12 0 39 -7 60 -16 20 -8 78 -19
127 -22 81 -6 94 -10 130 -39 62 -49 181 -113 212 -113 39 -1 219 -63 242 -84
14 -12 32 -16 67 -14 58 4 68 22 19 38 -19 6 -59 28 -88 47 -78 53 -117 70
-174 78 -29 4 -63 15 -75 25 -73 58 -129 120 -147 163 -11 26 -24 47 -29 47
-20 0 -62 50 -62 74 0 28 19 76 31 76 4 0 12 -13 18 -30 13 -38 29 -38 82 3
31 23 47 45 59 82 19 57 35 208 25 245 -14 58 -185 74 -185 17 0 -20 -1 -20
-17 -4 -15 15 -19 41 -21 165 l-4 147 44 38 c39 35 41 37 16 31 -33 -7 -33 -7
-13 39 12 30 12 37 0 47 -11 9 -18 7 -34 -9z"/>
<path d="M3995 9703 c-29 -62 -127 -236 -152 -269 -46 -62 -39 -122 29 -238
26 -43 30 -61 33 -145 7 -182 7 -306 0 -357 -5 -36 -3 -67 9 -107 9 -30 16
-68 16 -84 0 -15 5 -44 10 -64 l10 -35 80 0 79 0 -50 33 c-27 19 -54 45 -59
59 -6 14 -10 72 -10 128 0 79 5 117 21 162 11 32 24 95 27 139 l7 80 65 43
c152 100 200 148 200 198 0 19 10 23 108 38 59 10 132 22 162 28 30 6 75 11
100 12 93 4 111 6 106 15 -3 5 -34 11 -68 15 -188 18 -207 18 -277 1 -77 -19
-117 -14 -149 16 -25 23 -19 47 15 60 21 8 24 13 17 41 -9 43 -51 108 -68 108
-8 0 -33 15 -55 34 -23 19 -63 42 -91 51 -30 10 -59 28 -73 47 l-24 30 -18
-39z m128 -111 c24 -16 36 -31 32 -39 -3 -8 -5 -19 -5 -24 0 -6 -14 -15 -31
-21 -29 -10 -31 -13 -25 -52 4 -22 8 -53 9 -68 5 -63 27 -13 27 61 l0 44 23
-25 c13 -14 32 -30 42 -35 18 -10 17 -14 -15 -74 -18 -35 -46 -81 -62 -101
-28 -36 -31 -37 -76 -31 -26 3 -50 12 -55 19 -4 7 -27 39 -51 71 -25 32 -40
60 -35 61 12 5 43 65 70 137 11 31 27 55 35 55 8 0 16 15 20 40 l7 41 26 -17
c14 -10 43 -29 64 -42z"/>
<path d="M5120 9705 c-5 -14 -12 -25 -16 -25 -3 0 -4 7 0 15 3 8 1 15 -3 15
-5 0 -12 -28 -16 -62 -4 -35 -13 -104 -20 -154 -14 -94 -9 -175 16 -291 l12
-52 -36 -40 c-35 -38 -44 -60 -46 -106 -2 -55 -12 -173 -17 -192 -4 -21 -10
-23 -80 -23 -79 0 -160 -15 -171 -33 -8 -14 -5 -114 7 -207 6 -41 6 -88 2
-105 -7 -26 -14 -30 -45 -33 -20 -2 -37 -7 -37 -12 0 -14 40 -22 100 -18 l53
3 1 152 c1 104 5 153 12 153 6 0 37 -9 69 -20 37 -13 84 -20 131 -20 70 0 76
-2 125 -39 75 -57 173 -108 221 -116 67 -11 222 -66 236 -83 18 -23 115 -23
120 0 2 11 -6 18 -27 23 -17 4 -66 29 -108 57 -74 48 -95 57 -186 73 -49 8
-182 131 -192 176 -4 17 -23 42 -45 60 -44 36 -56 70 -39 111 14 34 27 36 39
4 14 -38 25 -38 76 -3 42 28 50 39 65 92 26 91 39 191 28 228 -7 27 -17 35
-61 52 -60 23 -113 15 -121 -17 -6 -23 -23 -23 -32 0 -4 9 -9 81 -11 159 -5
155 -6 151 56 196 l25 18 -27 -6 c-33 -6 -32 -8 -12 40 13 31 13 39 2 46 -23
15 -38 10 -48 -16z"/>
<path d="M6551 9684 c-11 -14 -26 -38 -33 -54 -7 -16 -23 -32 -36 -35 -21 -5
-23 -11 -19 -38 6 -40 -11 -83 -57 -143 -54 -71 -55 -96 -5 -189 52 -98 109
-168 149 -185 23 -10 29 -17 24 -32 -5 -17 34 -181 58 -238 5 -14 14 -50 19
-80 4 -30 15 -93 24 -138 9 -54 12 -90 6 -100 -5 -10 -31 -28 -58 -42 -50 -26
-57 -48 -13 -42 14 2 54 7 90 10 62 7 65 8 62 32 -2 14 -7 84 -11 155 -5 72
-14 144 -21 160 -9 22 -11 64 -5 155 l7 125 134 0 c123 1 136 3 155 22 29 29
21 57 -41 135 -166 211 -224 293 -227 321 -2 17 -11 40 -21 51 -10 12 -30 41
-44 66 -30 52 -85 110 -103 110 -8 0 -23 -12 -34 -26z m165 -235 c20 -29 29
-55 30 -88 1 -25 3 -49 3 -53 1 -4 11 -8 24 -10 16 -2 32 -23 61 -81 22 -42
37 -79 35 -81 -9 -9 -106 19 -141 41 -21 13 -43 23 -49 23 -7 0 -9 10 -4 28 4
15 9 60 11 100 4 56 1 79 -12 101 -16 28 -14 61 4 61 5 0 22 -19 38 -41z
m-133 -21 c3 -10 9 -10 25 -1 30 18 35 3 23 -64 -7 -38 -18 -64 -32 -75 -40
-34 -42 -29 -43 84 -1 46 3 68 11 68 6 0 13 -6 16 -12z"/>
<path d="M12345 9533 c-10 -9 -26 -37 -37 -62 -22 -51 -40 -143 -26 -135 4 3
6 -5 5 -18 -3 -14 -12 -24 -25 -26 -11 -2 -26 -10 -33 -18 -15 -19 -31 -93
-33 -159 l-1 -50 33 3 c31 2 33 0 26 -20 -4 -13 -11 -38 -15 -57 -10 -44 -23
-55 -89 -76 -72 -23 -141 -58 -163 -83 -33 -37 -19 -64 53 -99 42 -21 68 -29
74 -23 6 6 39 10 74 10 125 0 133 -19 127 -300 -3 -139 -1 -211 6 -215 6 -4
24 -1 40 5 27 12 28 14 14 30 -8 9 -15 25 -14 36 1 39 37 129 52 132 12 3 16
26 19 130 3 97 9 141 26 187 30 85 32 106 22 213 -9 102 -3 135 19 108 18 -22
38 -20 51 5 14 26 3 176 -15 205 -8 11 -27 27 -44 34 -36 14 -36 16 -15 58 11
23 12 36 5 51 -6 11 -11 32 -11 48 0 74 -82 130 -125 86z m-11 -748 c4 -12 -4
-15 -39 -15 -52 0 -69 17 -23 23 18 2 38 5 44 5 7 1 14 -5 18 -13z"/>
<path d="M3360 9401 c-14 -27 -13 -48 6 -76 9 -14 13 -33 9 -44 -6 -19 -8 -20
-31 -5 -14 10 -35 14 -51 11 -69 -14 -66 -15 -82 40 -9 29 -23 60 -32 69 -15
14 -20 14 -60 -6 -24 -12 -59 -36 -77 -53 -18 -17 -52 -41 -75 -52 -30 -14
-43 -27 -45 -45 -3 -14 -41 -62 -98 -119 -136 -136 -137 -132 80 -259 l80 -47
21 -75 c58 -202 58 -206 61 -435 2 -121 3 -223 3 -227 1 -13 201 -10 201 3 0
5 -25 22 -56 36 -78 36 -81 46 -58 206 10 72 20 196 22 275 2 110 6 142 16
142 8 0 19 7 26 15 7 9 19 14 25 11 15 -5 55 21 55 36 0 6 11 26 26 45 39 52
54 97 54 166 0 36 7 81 15 101 21 51 22 211 2 250 -9 16 -13 35 -10 42 8 21
-15 17 -27 -5z m-224 -116 c3 -14 3 -47 -1 -73 -4 -26 -9 -58 -11 -72 -2 -14
-6 -41 -10 -61 -3 -23 -2 -39 5 -43 6 -4 11 -15 11 -25 0 -24 -61 -44 -113
-36 -47 7 -157 36 -157 41 0 2 16 30 35 63 29 49 41 61 61 61 29 0 40 21 25
48 -6 12 -8 27 -5 35 10 28 100 81 146 86 4 1 10 -10 14 -24z"/>
<path d="M8042 9239 c-15 -23 -40 -55 -57 -71 -23 -24 -29 -37 -26 -65 2 -28
-7 -49 -48 -110 -33 -48 -51 -85 -51 -104 0 -66 133 -270 185 -283 20 -5 25
-13 25 -39 0 -27 18 -101 69 -277 17 -59 43 -234 40 -260 -3 -18 -17 -32 -53
-50 -74 -37 -74 -55 0 -46 33 4 75 9 94 9 34 2 35 3 32 37 -1 19 -4 85 -5 145
-2 73 -9 128 -21 163 -17 49 -17 64 -5 169 l12 114 49 -6 c27 -4 85 -4 130 0
66 6 86 12 104 30 30 30 21 59 -41 135 -142 175 -224 292 -231 327 -3 21 -17
49 -29 63 -13 14 -30 39 -39 57 -19 38 -79 103 -95 103 -6 0 -24 -19 -39 -41z
m173 -229 c21 -30 28 -52 29 -92 1 -49 3 -53 27 -56 27 -3 28 -5 76 -110 l24
-54 -43 7 c-24 3 -71 20 -105 37 -56 29 -61 33 -52 55 5 13 10 58 11 101 2 61
-2 83 -17 105 -16 24 -16 30 -4 38 22 13 24 12 54 -31z m-140 -16 c12 -13 19
-14 28 -5 20 20 27 12 27 -35 0 -51 -12 -81 -44 -106 -20 -16 -21 -16 -32 15
-7 20 -8 46 -2 71 5 21 6 47 3 57 -8 23 -2 24 20 3z"/>
<path d="M7365 8958 c-12 -28 -14 -29 -15 -10 0 12 -4 22 -10 22 -5 0 -10 -23
-10 -52 0 -28 -7 -90 -16 -137 -19 -98 -14 -236 11 -317 8 -27 15 -50 15 -51
0 -1 -17 -22 -38 -46 l-39 -44 -12 -135 -13 -135 -92 -6 c-51 -3 -109 -12
-130 -21 l-39 -16 7 -83 c3 -45 9 -110 12 -144 9 -88 2 -111 -41 -119 -60 -11
-38 -24 41 -24 l77 0 -6 37 c-4 20 -1 69 5 108 8 51 8 84 1 114 l-11 41 29 0
c16 0 46 -7 67 -16 20 -9 75 -18 120 -20 74 -3 88 -7 120 -32 68 -53 196 -122
227 -122 37 0 222 -65 245 -85 10 -9 36 -15 63 -15 64 0 62 21 -5 54 -29 14
-81 43 -116 65 -42 26 -80 41 -115 46 -29 4 -63 14 -77 22 -48 30 -140 128
-151 160 -6 18 -28 46 -50 64 -33 26 -39 37 -39 68 0 20 7 46 14 57 14 18 15
18 26 -13 15 -41 32 -41 89 1 46 33 64 73 75 166 2 19 7 58 11 85 10 72 -3 97
-62 118 -63 23 -111 14 -125 -22 l-10 -26 -13 25 c-8 15 -14 69 -15 140 -4
181 -5 177 35 202 38 25 46 43 15 33 -23 -7 -24 -3 -8 42 10 29 10 36 -2 43
-24 15 -30 12 -45 -22z"/>
<path d="M4352 8943 c-24 -46 -44 -189 -38 -278 5 -76 3 -98 -14 -144 -19 -48
-20 -61 -10 -130 6 -42 13 -86 15 -98 5 -20 -5 -28 -67 -59 -102 -51 -128 -71
-128 -99 0 -29 33 -56 97 -80 26 -10 73 -35 104 -56 45 -30 58 -45 68 -81 7
-23 19 -52 27 -63 9 -12 14 -47 14 -96 0 -82 -8 -97 -63 -118 -44 -17 -24 -28
45 -27 l63 2 1 43 c0 24 6 46 14 51 10 6 12 39 6 166 -5 109 -3 186 5 247 10
70 10 96 0 130 -7 23 -12 52 -12 65 1 13 -3 41 -8 63 -10 45 2 115 25 140 14
15 12 23 -15 77 -28 55 -47 122 -73 257 -15 77 -22 98 -35 102 -6 2 -16 -4
-21 -14z m27 -155 c1 -15 -3 -30 -9 -33 -6 -4 -10 16 -9 52 1 44 3 52 9 33 4
-14 8 -37 9 -52z m-5 -692 c4 -26 6 -50 2 -53 -7 -7 -92 58 -94 72 -2 11 56
35 73 31 6 -2 14 -24 19 -50z"/>
<path d="M6086 8885 c-13 -14 -29 -38 -36 -54 -6 -16 -21 -33 -33 -38 -18 -8
-22 -19 -22 -55 0 -36 -9 -56 -46 -109 -67 -93 -68 -109 -17 -207 52 -98 111
-170 149 -184 26 -9 29 -15 29 -53 0 -38 18 -111 52 -215 23 -70 59 -291 51
-318 -2 -11 -26 -29 -54 -41 -64 -29 -68 -57 -6 -46 23 4 65 10 92 13 46 6 50
9 47 32 -1 14 -6 84 -10 155 -5 72 -14 140 -20 152 -13 24 -15 79 -6 198 l7
81 116 0 c209 1 236 42 120 180 -27 32 -80 100 -118 149 -38 50 -75 96 -83
103 -8 6 -15 28 -16 48 -1 21 -10 46 -21 58 -10 12 -26 36 -36 55 -19 37 -93
121 -107 121 -5 0 -19 -11 -32 -25z m180 -274 c9 -18 14 -45 14 -60 -3 -44 -1
-49 25 -55 24 -6 70 -80 90 -144 6 -22 5 -23 -32 -17 -21 4 -66 21 -101 38
-54 26 -62 34 -57 51 4 12 9 57 12 101 4 66 2 83 -11 94 -19 16 -21 42 -4 59
15 15 40 -12 64 -67z m-154 13 c14 -14 20 -14 33 -4 23 19 28 7 20 -51 -10
-72 -73 -135 -76 -76 -4 55 -4 147 0 147 3 0 13 -7 23 -16z"/>
<path d="M10066 8885 c-13 -14 -29 -38 -36 -54 -6 -16 -22 -33 -35 -39 -20 -9
-23 -18 -22 -54 1 -37 -5 -53 -45 -108 -25 -36 -50 -78 -53 -93 -15 -59 127
-285 188 -301 20 -5 24 -12 24 -44 0 -21 10 -74 22 -118 13 -43 29 -101 36
-129 27 -96 51 -250 47 -296 -1 -8 -24 -26 -52 -38 -65 -29 -69 -57 -7 -46 23
4 65 11 92 14 46 6 50 8 47 31 -2 14 -6 84 -11 155 -4 72 -12 140 -19 152 -13
24 -15 79 -5 201 l6 84 61 -6 c87 -9 204 8 229 32 28 28 18 56 -48 138 -30 38
-86 110 -124 159 -38 50 -75 96 -83 103 -8 6 -15 27 -16 46 -1 23 -13 51 -37
81 -19 26 -35 51 -35 56 0 13 -80 99 -92 99 -5 0 -19 -11 -32 -25z m185 -283
c6 -19 8 -47 5 -63 -5 -27 -2 -31 25 -41 22 -8 37 -25 58 -67 16 -31 32 -66
36 -79 6 -22 5 -23 -32 -17 -21 4 -66 21 -101 38 -54 26 -62 34 -57 51 3 12 8
57 11 102 4 66 3 83 -10 93 -19 16 -21 42 -4 59 9 9 17 6 35 -15 12 -16 27
-43 34 -61z m-159 21 c14 -13 21 -14 30 -5 7 7 16 12 21 12 10 0 -1 -97 -14
-122 -11 -21 -48 -42 -57 -33 -7 7 -10 165 -3 165 3 0 13 -8 23 -17z"/>
<path d="M193 8668 c-11 -13 -28 -37 -37 -55 -9 -17 -25 -34 -36 -38 -15 -5
-19 -15 -18 -51 0 -37 -7 -56 -51 -120 -28 -42 -51 -86 -51 -99 0 -30 73 -168
119 -224 20 -24 50 -50 67 -57 25 -10 30 -18 27 -36 -2 -13 12 -79 32 -148 20
-69 41 -150 46 -181 4 -32 13 -77 18 -100 6 -24 11 -66 11 -92 0 -47 -1 -48
-44 -67 -24 -11 -49 -27 -57 -36 -12 -14 -4 -15 82 -9 94 8 115 17 102 45 -3
8 -9 71 -13 140 -4 69 -12 138 -18 153 -13 32 -15 93 -6 212 l7 80 126 1 c132
0 165 8 176 44 8 25 -27 88 -87 156 -80 89 -194 249 -195 273 -1 13 -13 40
-26 60 -120 184 -132 195 -174 149z m163 -239 c22 -33 29 -53 29 -93 0 -48 2
-51 26 -54 23 -3 32 -15 63 -82 20 -44 36 -81 36 -84 0 -10 -109 22 -150 45
-25 13 -46 24 -47 24 -1 1 2 43 7 95 9 84 8 97 -9 131 -14 27 -16 40 -8 48 17
17 22 14 53 -30z m-141 -16 c13 -13 21 -14 35 -5 24 15 29 8 23 -41 -7 -62
-21 -93 -49 -105 -20 -10 -24 -9 -26 6 -2 22 -4 162 -1 162 1 0 9 -8 18 -17z"/>
<path d="M960 8545 c-24 -46 -63 -115 -87 -152 -71 -113 -77 -131 -64 -183 7
-25 28 -72 48 -105 32 -54 36 -69 39 -145 11 -228 12 -299 2 -342 -9 -37 -8
-64 6 -135 10 -48 20 -101 23 -118 10 -64 12 -66 56 -64 23 1 59 -2 80 -6 49
-10 46 4 -11 40 -67 43 -73 60 -69 195 3 87 9 129 25 174 12 33 24 91 27 129
2 39 6 71 7 72 2 2 37 24 78 51 137 87 180 131 180 183 0 11 8 22 19 26 42 13
291 48 363 51 95 3 123 17 53 25 -27 3 -82 11 -121 17 -47 8 -88 8 -125 2
-122 -22 -154 -23 -187 -6 -39 20 -42 52 -7 68 31 14 31 26 1 93 -16 34 -33
56 -48 61 -12 4 -39 19 -58 35 -19 15 -61 38 -94 50 -38 15 -62 31 -69 46 -5
13 -13 23 -17 23 -3 0 -26 -38 -50 -85z m132 -42 c32 -21 58 -41 58 -45 0 -25
-22 -58 -40 -58 -30 0 -34 -22 -19 -91 15 -68 27 -57 28 24 l1 49 30 -25 c16
-14 35 -27 42 -30 16 -5 -48 -136 -90 -183 -24 -28 -32 -31 -70 -27 -39 5 -46
10 -81 62 -22 31 -46 63 -55 70 -14 12 -14 16 8 42 21 25 66 125 66 148 0 4
11 17 25 29 14 13 25 33 25 47 0 14 3 25 7 25 3 0 33 -17 65 -37z"/>
<path d="M5436 8422 c-3 -5 -15 -49 -27 -98 -17 -72 -20 -107 -15 -184 5 -80
3 -104 -14 -152 -19 -54 -19 -63 -6 -150 8 -51 12 -96 10 -100 -3 -4 -37 -23
-77 -42 -39 -19 -82 -44 -94 -56 -44 -41 -24 -81 54 -110 31 -12 83 -37 115
-57 47 -29 60 -43 74 -82 10 -25 24 -55 31 -66 8 -12 13 -49 13 -95 0 -67 -3
-79 -22 -97 -13 -11 -33 -24 -45 -28 -46 -13 -22 -26 45 -23 l67 3 1 37 c1 21
7 44 13 52 9 11 12 65 10 198 -2 101 0 217 5 258 7 62 6 82 -7 106 -9 17 -14
40 -11 51 3 11 1 38 -5 58 -12 44 1 120 25 146 12 14 11 23 -16 75 -16 32 -33
75 -36 94 -3 19 -15 66 -25 105 -11 38 -19 84 -19 101 0 31 -33 74 -44 56z
m23 -169 c1 -18 -3 -33 -9 -33 -5 0 -10 24 -9 53 0 38 3 47 9 32 5 -11 9 -35
9 -52z m-4 -700 c4 -25 3 -43 -3 -43 -12 0 -105 71 -99 76 2 2 21 10 43 18 45
15 48 12 59 -51z"/>
<path d="M11735 8417 c-2 -6 -6 -34 -9 -62 -7 -51 -33 -136 -51 -167 -5 -9
-50 -39 -98 -67 -49 -28 -117 -77 -153 -108 l-65 -58 6 -50 c13 -112 47 -226
92 -310 9 -16 22 -42 30 -58 44 -84 72 -318 50 -419 l-8 -38 252 0 251 0 -6
24 c-12 47 -26 163 -26 216 0 67 24 200 44 238 8 15 30 66 49 115 31 75 42
125 61 265 5 36 -120 134 -261 206 -31 15 -58 38 -67 54 -11 23 -35 112 -52
198 -4 25 -33 40 -39 21z m113 -329 c52 -40 115 -99 139 -131 l46 -59 -20 -36
c-11 -21 -24 -50 -27 -66 -4 -16 -23 -46 -42 -65 -19 -20 -34 -39 -34 -43 0
-4 -9 -8 -19 -8 -11 0 -21 -6 -24 -12 -2 -7 -8 -1 -11 13 -6 19 -1 36 17 62
43 64 53 211 19 274 -29 52 -130 81 -185 51 -32 -17 -66 -55 -73 -84 -14 -57
16 -195 45 -206 6 -1 14 -22 19 -45 8 -36 7 -45 -9 -59 -17 -15 -21 -15 -54 0
-19 9 -35 21 -35 25 0 5 -11 19 -23 32 -13 13 -29 39 -35 57 -6 18 -20 46 -32
61 -31 44 -25 67 33 128 47 50 196 182 206 183 3 0 47 -32 99 -72z"/>
<path d="M11246 8374 c-10 -26 -7 -53 9 -78 19 -29 10 -61 -14 -49 -9 4 -41 7
-72 7 l-56 -2 -17 53 c-23 73 -36 82 -85 60 -22 -9 -59 -35 -83 -57 -23 -21
-54 -41 -68 -45 -31 -7 -61 -33 -54 -44 8 -14 -34 -68 -114 -145 -67 -64 -73
-73 -70 -105 3 -37 9 -41 172 -137 88 -52 82 -41 125 -222 10 -41 24 -96 31
-121 10 -36 11 -61 3 -111 -8 -44 -8 -81 -1 -119 6 -30 8 -89 5 -131 -3 -53
-1 -78 6 -81 7 -2 55 -1 107 2 l95 6 -62 33 c-45 23 -64 39 -69 57 -8 31 3
156 21 250 8 39 13 123 13 189 -1 114 -1 119 23 137 13 10 33 19 44 19 29 0
36 8 85 89 40 67 45 82 51 160 4 47 12 107 19 133 14 57 8 178 -11 231 -15 40
-23 46 -33 21z m-225 -116 c1 -13 1 -26 1 -29 -16 -155 -18 -215 -8 -245 14
-39 -72 -47 -196 -18 -38 9 -68 19 -68 23 0 4 15 31 33 61 23 39 39 56 57 59
32 4 41 20 28 44 -5 10 -7 29 -4 40 8 34 90 82 144 86 6 1 13 -9 13 -21z"/>
<path d="M8577 8274 c-4 -4 -7 -23 -7 -42 0 -45 -38 -172 -57 -194 -9 -10 -53
-39 -98 -64 -46 -26 -113 -73 -149 -106 -65 -59 -66 -60 -60 -101 19 -142 44
-223 105 -340 59 -111 89 -316 69 -457 l-5 -35 249 -3 248 -2 -5 32 c-4 18
-11 80 -16 138 -12 121 3 250 37 323 62 131 84 197 97 292 7 55 11 103 9 106
-11 19 -179 136 -236 165 -91 46 -108 74 -132 219 -8 48 -16 71 -27 73 -8 1
-18 0 -22 -4z m125 -342 c42 -34 98 -87 124 -117 l47 -56 -21 -47 c-12 -26
-24 -57 -27 -69 -3 -12 -21 -38 -40 -59 -19 -21 -35 -42 -35 -47 0 -5 -6 -7
-14 -4 -7 3 -18 1 -24 -5 -7 -7 -12 -3 -17 10 -4 14 3 34 19 59 46 71 55 186
20 268 -18 43 -82 77 -133 71 -48 -5 -96 -37 -116 -77 -26 -50 -2 -219 30
-219 8 0 18 -21 24 -47 9 -43 8 -50 -10 -65 -19 -16 -22 -16 -52 2 -38 23 -78
72 -97 120 -7 19 -22 47 -32 62 -10 14 -18 34 -18 43 0 27 60 94 164 181 86
72 102 82 115 71 9 -8 51 -41 93 -75z"/>
<path d="M2574 8185 c-3 -14 -11 -25 -16 -25 -6 0 -8 7 -4 15 3 8 2 15 -3 15
-5 0 -14 -48 -21 -107 -7 -60 -16 -132 -20 -162 -6 -55 0 -131 21 -233 l11
-57 -36 -42 c-20 -24 -37 -50 -37 -58 -1 -9 -3 -29 -5 -46 -2 -16 -7 -70 -11
-120 l-8 -90 -92 -6 c-50 -4 -107 -12 -127 -19 l-36 -12 0 -60 c0 -33 5 -100
12 -149 14 -109 6 -135 -46 -145 -58 -10 -30 -24 49 -24 l74 0 -6 48 c-3 26 0
73 6 103 8 39 9 69 2 100 -6 24 -6 48 -2 52 5 5 37 -2 72 -14 40 -14 93 -23
140 -24 69 -2 81 -5 115 -33 64 -52 196 -122 229 -122 38 0 223 -65 246 -86
11 -10 31 -14 60 -12 56 4 58 25 4 47 -22 9 -61 30 -85 47 -67 47 -100 61
-155 69 -28 4 -59 12 -70 18 -41 20 -131 113 -152 156 -12 25 -38 59 -58 76
-29 24 -37 38 -38 67 -1 37 18 72 34 62 5 -3 9 -14 9 -25 0 -34 28 -33 84 4
52 35 52 35 65 108 7 41 17 98 23 127 14 78 -1 115 -55 132 -23 8 -46 16 -50
20 -16 14 -75 -14 -84 -40 l-9 -25 -13 24 c-9 17 -14 70 -15 169 l-1 144 40
35 c38 33 39 34 13 29 -33 -7 -33 -7 -11 39 15 31 15 37 3 45 -25 16 -39 11
-46 -15z"/>
<path d="M3726 8080 c-21 -38 -45 -62 -100 -99 -40 -27 -80 -60 -88 -73 -24
-36 -119 -138 -129 -138 -4 0 -13 19 -19 41 -13 47 -50 89 -79 89 -33 0 -71
-22 -76 -44 -2 -12 -6 -33 -9 -48 -9 -42 9 -76 41 -80 21 -2 29 -9 31 -27 4
-24 3 -24 -76 -19 -46 3 -90 11 -104 19 -12 9 -45 24 -73 34 -27 10 -73 31
-100 46 -50 27 -51 27 -63 8 -10 -16 -10 -19 4 -19 8 0 13 -4 10 -9 -3 -4 13
-14 35 -20 23 -7 63 -28 90 -48 28 -19 89 -48 137 -63 63 -21 88 -33 90 -47 2
-10 16 -31 30 -46 41 -44 148 -127 164 -127 7 0 23 -7 35 -15 21 -15 22 -21
16 -113 -3 -53 -1 -135 5 -182 6 -47 14 -124 18 -172 l7 -88 -49 -22 -49 -22
79 -7 c44 -5 81 -7 83 -5 2 2 5 91 7 197 3 139 8 205 18 234 8 22 23 75 32
117 10 43 21 80 26 83 5 3 7 19 4 35 -6 26 4 40 92 135 55 58 108 121 119 140
l20 33 -39 124 c-36 116 -92 248 -106 248 -4 0 -19 -23 -34 -50z m23 -101 c21
-17 23 -25 18 -72 -3 -32 0 -67 9 -92 7 -22 14 -43 14 -48 0 -10 -116 -94
-165 -119 -25 -13 -63 -21 -102 -23 l-63 -2 0 31 c0 20 13 50 36 81 20 28 45
68 56 90 17 34 152 174 168 174 3 0 16 -9 29 -20z"/>
<path d="M12738 8014 c-10 -21 -9 -31 5 -56 9 -16 17 -36 17 -43 0 -20 -19
-28 -35 -15 -8 7 -36 10 -66 8 l-51 -3 -17 54 c-9 30 -24 59 -33 65 -23 14
-71 -10 -137 -68 -29 -25 -60 -46 -70 -46 -22 0 -51 -31 -51 -55 0 -10 -38
-55 -84 -101 -46 -45 -89 -92 -96 -104 -18 -33 -5 -63 37 -88 21 -13 79 -47
128 -76 80 -47 91 -57 96 -87 4 -19 21 -88 40 -154 24 -87 32 -135 30 -175 -8
-124 1 -369 14 -373 6 -3 53 -1 105 2 l95 7 -60 30 c-84 41 -88 54 -69 195 26
198 33 302 27 365 l-6 62 34 15 c19 9 43 17 54 19 11 2 24 12 30 23 6 11 22
38 37 60 42 62 60 123 53 176 -5 34 -2 56 10 79 23 45 30 205 10 244 -8 15
-15 37 -15 47 0 27 -18 23 -32 -7z m-221 -170 c-3 -47 -12 -100 -18 -119 -10
-28 -10 -39 1 -62 8 -15 16 -31 18 -35 7 -14 -52 -30 -103 -29 -56 2 -165 29
-165 42 0 4 13 32 29 61 22 40 36 54 56 56 31 4 43 27 27 53 -7 10 -9 24 -6
32 12 31 103 84 148 86 18 1 19 -5 13 -85z"/>
<path d="M1507 7988 c-9 -5 -17 -15 -17 -23 0 -8 -5 -17 -12 -21 -8 -5 -9 0
-6 14 4 12 3 22 -2 22 -6 0 -19 -81 -39 -264 -7 -62 0 -154 20 -243 12 -51 12
-52 -25 -94 -20 -23 -37 -50 -37 -58 -1 -9 -3 -29 -5 -46 -2 -16 -7 -70 -12
-120 l-7 -90 -94 -7 c-52 -4 -110 -13 -129 -19 l-35 -11 7 -107 c3 -58 9 -129
12 -157 5 -44 3 -55 -15 -73 -11 -11 -33 -21 -47 -21 -14 0 -23 -4 -19 -10 3
-5 39 -10 78 -10 l73 0 1 68 c0 37 2 94 3 127 2 33 0 70 -4 83 -6 19 -4 22 17
22 13 0 44 -7 68 -16 24 -9 81 -18 126 -20 78 -3 85 -6 135 -44 72 -55 180
-110 214 -110 40 -1 224 -66 238 -86 9 -11 25 -14 61 -12 61 4 67 25 14 43
-20 7 -68 34 -106 60 -55 36 -86 49 -138 58 -61 10 -73 17 -134 70 -67 60 -83
80 -101 130 -5 15 -23 36 -40 45 -36 21 -55 68 -41 105 15 38 28 40 40 7 13
-37 23 -37 80 0 41 25 48 36 62 87 28 102 39 196 28 234 -9 29 -18 36 -64 52
-64 21 -100 15 -119 -21 l-13 -26 -13 24 c-7 14 -14 77 -16 160 -4 126 -2 140
16 163 11 14 29 29 40 32 29 9 24 26 -5 19 -28 -7 -30 0 -10 36 8 14 14 30 15
36 0 17 -23 23 -43 12z"/>
<path d="M4846 7905 c-3 -9 -15 -58 -25 -109 -16 -74 -18 -109 -12 -172 7 -67
5 -87 -12 -133 -18 -50 -19 -64 -9 -155 6 -55 9 -102 7 -106 -2 -3 -42 -25
-90 -50 -98 -49 -118 -74 -92 -113 9 -14 41 -33 76 -46 73 -28 171 -88 171
-105 0 -7 11 -35 25 -62 19 -37 26 -67 28 -123 2 -66 0 -78 -21 -103 -13 -15
-32 -28 -43 -28 -22 0 -26 -19 -4 -21 8 -1 38 -2 65 -3 l50 -1 0 41 c0 23 6
46 13 52 9 8 12 39 9 114 -6 189 -5 237 8 310 10 59 10 82 -1 118 -7 25 -13
56 -14 70 -1 14 -6 51 -10 82 -6 48 -4 63 14 101 l22 46 -25 48 c-26 52 -76
236 -76 281 0 52 -40 102 -54 67z m21 -172 c-2 -16 -4 -3 -4 27 0 30 2 43 4
28 2 -16 2 -40 0 -55z m-2 -657 c4 -18 5 -43 3 -56 -3 -21 -5 -21 -50 15 -27
20 -48 39 -48 43 0 7 51 28 77 31 7 0 15 -14 18 -33z"/>
<path d="M6490 7644 c-33 -56 -58 -81 -118 -121 -29 -20 -80 -69 -113 -109
-72 -88 -109 -114 -109 -76 -1 38 -38 101 -65 108 -34 8 -94 -19 -97 -43 -1
-10 -2 -25 -3 -33 0 -8 -4 -20 -8 -27 -12 -20 14 -63 38 -63 26 0 50 -24 40
-40 -11 -18 -134 -12 -179 9 -23 10 -81 37 -129 60 -79 36 -90 39 -104 26 -8
-8 -10 -15 -4 -15 6 0 11 -6 11 -14 0 -8 15 -16 34 -19 19 -3 61 -24 94 -47
35 -23 93 -50 137 -63 61 -19 79 -29 94 -53 26 -43 151 -155 181 -160 14 -3
34 -13 45 -22 18 -16 20 -29 20 -157 0 -77 4 -199 9 -272 l9 -131 -42 -13
c-47 -14 -54 -29 -13 -29 15 0 51 -3 81 -7 l53 -6 -7 40 c-3 23 -1 77 5 121 9
60 9 93 1 134 -11 49 -9 63 10 119 29 83 61 215 63 259 1 30 15 49 91 128 101
106 135 150 138 179 1 19 -61 223 -90 293 -7 19 -22 46 -32 59 l-18 23 -23
-38z m10 -114 c16 -16 20 -34 20 -87 1 -40 7 -78 15 -93 8 -14 14 -28 15 -32
0 -10 -114 -89 -176 -122 -40 -22 -61 -27 -105 -24 l-54 3 3 34 c2 18 18 54
37 80 18 25 40 62 50 81 13 26 157 177 173 180 1 0 11 -9 22 -20z"/>
<path d="M4164 7435 c-3 -14 -10 -25 -14 -25 -5 0 -6 9 -3 20 3 11 1 20 -4 20
-5 0 -15 -51 -22 -112 -8 -62 -17 -135 -20 -163 -6 -50 -2 -104 20 -227 l12
-67 -36 -41 c-21 -22 -37 -46 -37 -53 -1 -28 -11 -136 -18 -197 l-7 -65 -105
-6 c-138 -7 -150 -14 -150 -85 0 -30 5 -98 12 -150 14 -119 6 -144 -49 -144
-36 -1 -37 -1 -18 -16 14 -10 38 -14 79 -12 l59 3 4 85 c2 47 5 101 6 120 1
19 -1 50 -5 68 -9 39 -1 40 90 12 37 -12 92 -20 131 -20 63 0 70 -2 123 -43
74 -55 172 -104 223 -112 56 -9 205 -62 225 -80 22 -20 120 -21 120 -1 0 8
-17 20 -37 27 -21 6 -60 27 -88 47 -62 44 -117 68 -178 77 -40 5 -59 17 -122
73 -56 49 -78 76 -87 105 -8 28 -22 46 -45 60 -38 22 -55 67 -40 110 13 39 24
41 36 7 6 -19 17 -30 29 -30 20 0 113 66 110 78 -1 4 3 25 9 47 19 74 34 190
27 221 -5 26 -13 34 -47 45 -23 7 -47 16 -53 20 -14 11 -84 -11 -84 -27 0 -22
-19 -25 -30 -5 -12 23 -21 259 -12 296 4 13 22 36 41 50 l35 25 -27 0 c-27 0
-28 0 -12 31 19 36 14 59 -14 59 -14 0 -23 -9 -27 -25z"/>
<path d="M10475 7276 c-24 -38 -56 -70 -99 -98 -34 -24 -87 -72 -116 -108 -53
-64 -88 -99 -102 -100 -4 0 -12 18 -18 39 -16 61 -41 85 -85 84 -48 -1 -71
-26 -78 -84 -7 -54 9 -83 45 -84 16 0 24 -7 26 -22 3 -22 0 -23 -62 -23 -67 0
-152 28 -278 91 -62 31 -73 34 -63 19 3 -5 -2 -10 -12 -10 -14 -1 -13 -4 7
-15 16 -9 19 -15 10 -15 -8 -1 5 -7 30 -14 25 -7 72 -31 104 -54 33 -23 63
-42 69 -42 5 0 40 -9 78 -21 52 -16 69 -25 69 -39 0 -21 126 -141 168 -160 85
-38 77 -24 74 -141 -2 -57 4 -162 12 -234 9 -71 16 -147 16 -168 0 -36 -3 -39
-47 -60 l-48 -21 70 -8 c39 -5 76 -7 84 -6 11 2 14 42 16 198 2 147 6 204 18
230 8 19 22 71 32 115 9 44 21 84 25 89 5 5 6 21 3 37 -4 24 4 38 63 101 189
200 179 176 131 322 -21 61 -37 116 -37 121 0 9 -56 124 -65 134 -2 2 -20 -22
-40 -53z m42 -173 c-3 -30 1 -65 10 -93 l15 -45 -43 -37 c-24 -21 -74 -54
-110 -73 -53 -28 -78 -35 -123 -35 l-56 0 0 31 c0 20 13 49 33 78 19 25 47 70
62 99 17 32 47 66 74 87 25 18 56 44 69 58 l23 25 26 -24 c23 -21 25 -29 20
-71z"/>
<path d="M818 7184 c-10 -21 -9 -31 5 -56 9 -16 17 -36 17 -43 0 -20 -19 -28
-35 -15 -8 7 -36 10 -66 8 l-51 -3 -17 54 c-9 30 -24 59 -33 64 -23 15 -86
-15 -134 -64 -20 -21 -51 -41 -68 -45 -34 -7 -55 -29 -56 -58 0 -10 -40 -58
-89 -105 -52 -51 -93 -99 -97 -115 -8 -34 16 -62 89 -101 29 -15 80 -45 113
-67 51 -32 63 -45 66 -71 3 -18 22 -95 42 -171 34 -129 36 -143 25 -196 -8
-41 -8 -81 0 -147 6 -49 8 -111 5 -136 l-7 -47 107 0 c58 0 106 2 106 5 0 3
-27 18 -60 35 -39 20 -64 40 -70 55 -6 17 -4 64 6 142 24 183 33 303 27 364
-6 57 -6 57 28 72 19 9 43 17 53 19 10 2 24 12 30 23 6 11 22 35 35 54 41 58
62 127 55 180 -4 35 -2 57 11 80 21 41 27 233 7 253 -6 6 -12 22 -12 35 0 31
-18 29 -32 -3z m-221 -170 c-3 -47 -12 -101 -19 -120 -11 -30 -10 -40 4 -64 8
-15 13 -32 9 -37 -17 -28 -101 -32 -188 -9 -84 22 -85 23 -46 89 27 45 39 57
59 57 29 0 42 25 25 52 -20 32 19 80 86 104 75 26 77 25 70 -72z"/>
<path d="M7502 7138 c-16 -16 -15 -54 3 -81 8 -12 12 -32 9 -44 -6 -21 -8 -21
-30 -7 -17 12 -36 14 -72 9 l-49 -6 -11 44 c-7 24 -20 55 -31 68 -19 23 -19
23 -59 5 -22 -10 -57 -36 -78 -57 -22 -22 -55 -44 -76 -49 -30 -9 -39 -17 -49
-47 -8 -25 -42 -66 -101 -124 -82 -79 -89 -90 -86 -120 3 -37 8 -41 172 -137
l79 -47 22 -75 c54 -184 57 -205 59 -437 0 -123 3 -224 6 -224 23 -6 200 -4
200 2 0 5 -27 22 -60 39 -45 23 -61 37 -66 57 -4 15 1 86 12 158 10 71 20 191
20 265 2 126 3 135 23 144 12 5 21 13 21 18 0 4 13 8 29 8 24 0 34 10 67 62
52 84 62 113 63 183 1 33 8 80 16 103 17 49 22 216 7 235 -5 7 -13 25 -18 40
-7 22 -12 25 -22 15z m-230 -115 c0 -10 1 -25 0 -33 -1 -8 -2 -43 -3 -78 -1
-34 -5 -65 -10 -68 -12 -7 -11 -71 1 -79 6 -3 10 -15 10 -25 0 -21 -45 -36
-100 -32 -36 3 -170 32 -170 37 0 2 15 29 33 61 26 47 39 60 62 64 30 6 32 10
20 60 -8 31 34 75 91 95 52 19 64 18 66 -2z"/>
<path d="M8282 6918 c-17 -17 -15 -63 3 -78 23 -19 15 -56 -10 -51 -11 2 -45
4 -75 3 l-55 -1 -18 60 c-10 33 -24 62 -33 66 -22 8 -83 -22 -133 -68 -24 -22
-57 -43 -73 -46 -24 -5 -34 -16 -49 -51 -13 -30 -49 -74 -104 -127 -72 -68
-85 -85 -85 -113 0 -27 7 -36 53 -66 28 -18 82 -50 118 -69 80 -44 82 -47 104
-122 56 -193 58 -211 60 -439 2 -175 5 -220 16 -225 8 -4 57 -4 109 -1 l95 6
-67 31 c-52 24 -69 38 -74 58 -4 14 2 83 12 153 10 70 19 192 21 271 4 132 6
144 24 148 10 3 19 9 19 14 0 5 13 9 29 9 24 0 34 10 67 62 52 84 62 113 63
183 1 33 8 80 16 103 20 58 21 210 2 249 -8 15 -12 34 -10 41 6 15 -9 16 -25
0z m-227 -117 c3 -10 3 -34 0 -52 -4 -19 -6 -53 -7 -76 0 -24 -4 -45 -9 -49
-12 -7 -12 -71 1 -79 6 -3 10 -15 10 -25 0 -42 -135 -42 -246 0 l-23 9 32 58
c24 43 39 59 57 61 38 5 44 17 30 52 -12 30 -11 33 17 61 27 27 89 57 120 59
6 0 14 -9 18 -19z"/>
<path d="M5415 6858 c-13 -32 -13 -32 -17 -8 -3 15 -7 2 -12 -35 -4 -33 -14
-100 -22 -148 -16 -93 -8 -234 18 -319 11 -36 10 -39 -29 -81 -39 -42 -41 -46
-47 -133 -4 -49 -9 -110 -12 -135 l-6 -46 -96 -5 c-55 -3 -111 -11 -127 -19
l-30 -15 5 -89 c3 -50 5 -126 5 -169 l0 -79 -40 -12 c-54 -16 -28 -27 55 -23
l62 3 2 152 c0 84 4 153 9 153 4 0 33 -9 64 -20 38 -13 83 -20 133 -20 74 0
77 -1 135 -45 79 -59 186 -115 221 -115 38 -1 220 -65 240 -85 12 -11 30 -15
63 -13 58 4 61 24 6 46 -22 9 -73 37 -112 63 -53 34 -87 49 -125 54 -67 9 -79
16 -155 84 -41 37 -69 71 -82 102 -13 32 -30 53 -50 63 -35 19 -51 72 -32 112
14 32 27 30 40 -6 5 -16 14 -30 18 -30 5 0 30 15 57 33 41 27 51 41 66 87 21
64 35 196 25 240 -4 17 -13 30 -21 30 -8 0 -32 8 -53 18 -47 23 -102 9 -112
-29 -6 -23 -7 -22 -23 13 -12 29 -16 69 -16 173 l0 135 40 26 c46 31 50 39 15
30 -29 -7 -31 1 -10 40 10 20 11 32 3 41 -18 22 -38 15 -53 -19z"/>
<path d="M10952 6758 c-24 -46 -60 -112 -82 -148 -75 -122 -84 -148 -70 -194
6 -23 28 -70 48 -106 39 -70 36 -50 46 -325 3 -70 0 -139 -6 -166 -9 -36 -8
-60 6 -119 9 -40 16 -84 17 -99 0 -14 5 -41 12 -60 l12 -35 78 -1 c42 -1 77 0
77 0 0 1 -22 17 -50 36 -61 42 -70 65 -70 187 0 75 5 111 24 166 14 39 28 105
33 146 l8 75 65 41 c36 23 91 63 122 88 48 38 59 53 64 85 7 44 -8 39 194 73
69 12 148 22 175 23 103 4 115 5 115 14 0 9 -51 16 -205 27 -67 4 -106 2 -151
-10 -62 -16 -109 -11 -140 15 -23 19 -17 48 12 59 22 9 25 14 19 40 -13 59
-44 109 -73 116 -15 4 -32 15 -39 24 -6 9 -40 29 -75 44 -88 38 -92 40 -103
64 -5 12 -12 22 -15 22 -3 0 -25 -37 -48 -82z m126 -45 c31 -21 58 -38 60 -39
1 0 -1 -15 -4 -32 -5 -25 -12 -32 -31 -32 -13 0 -26 -7 -29 -15 -7 -18 17
-137 25 -129 4 3 8 32 11 64 l5 58 39 -34 40 -34 -33 -63 c-18 -35 -47 -79
-64 -99 -30 -34 -35 -36 -75 -30 -38 6 -47 14 -97 80 -29 39 -50 72 -45 72 12
0 42 59 71 135 11 30 26 55 34 55 15 0 25 22 25 56 0 13 2 24 5 24 3 0 31 -17
63 -37z"/>
<path d="M2134 6627 c-11 -14 -26 -39 -36 -55 -9 -17 -47 -51 -85 -76 -38 -25
-83 -64 -100 -88 -35 -49 -102 -118 -114 -118 -5 0 -13 19 -19 41 -12 43 -49
89 -73 89 -34 0 -77 -23 -81 -43 -19 -93 -11 -124 31 -129 20 -2 29 -9 31 -25
3 -22 0 -23 -63 -23 -69 0 -124 19 -268 91 -60 30 -82 36 -72 20 3 -5 -3 -12
-12 -14 -17 -4 -17 -5 0 -6 10 0 16 -5 13 -10 -3 -4 12 -13 33 -20 21 -6 67
-30 102 -54 39 -26 92 -50 137 -62 64 -17 75 -24 87 -50 19 -43 157 -165 186
-165 8 0 25 -7 37 -16 22 -15 23 -20 17 -107 -5 -61 -1 -138 9 -227 9 -74 16
-154 16 -178 0 -41 -2 -43 -47 -64 l-48 -22 79 -7 c44 -5 82 -7 84 -4 2 2 6
91 7 197 2 143 7 202 18 228 8 19 22 71 32 115 9 44 22 85 27 92 5 7 7 25 4
41 -5 21 -2 33 15 48 59 52 199 216 205 239 9 37 -74 297 -116 359 l-17 27
-19 -24z m29 -222 c3 -44 7 -91 9 -104 2 -20 -7 -32 -47 -62 -89 -69 -157 -99
-220 -97 -53 1 -55 3 -55 28 0 15 12 45 27 66 14 21 42 67 62 101 23 41 60 83
106 122 67 57 70 58 91 42 19 -13 23 -28 27 -96z"/>
<path d="M11851 6619 c-30 -33 -84 -209 -59 -193 4 3 8 -4 8 -15 0 -14 -11
-25 -34 -35 -26 -11 -36 -22 -41 -48 -3 -18 -11 -54 -17 -79 -6 -25 -8 -58 -4
-73 6 -24 10 -27 36 -21 35 8 36 3 14 -65 -20 -60 -25 -65 -102 -89 -116 -36
-183 -91 -166 -136 3 -8 34 -28 67 -44 56 -27 63 -28 79 -15 13 12 30 14 75 9
85 -10 92 -13 109 -53 12 -31 14 -75 11 -250 -2 -117 0 -215 4 -217 3 -3 21 0
38 6 30 11 31 12 15 30 -14 16 -15 25 -5 65 19 74 39 114 56 114 14 0 15 12
10 98 -5 82 -3 108 15 167 12 39 26 86 33 107 7 25 8 66 1 136 -5 54 -8 107
-6 115 3 15 5 15 28 1 20 -14 27 -14 40 -3 14 11 15 28 9 108 -8 110 -14 125
-55 139 -20 8 -30 18 -30 31 0 12 4 21 9 21 12 0 11 52 -1 67 -6 7 -8 25 -5
40 4 21 -3 37 -25 65 -35 44 -75 51 -107 17z m-3 -746 c2 -9 -9 -13 -37 -13
-44 0 -64 16 -29 23 36 7 61 3 66 -10z"/>
<path d="M3154 6620 c-27 -11 -73 -105 -83 -171 -4 -26 -4 -46 1 -43 4 3 8 -3
8 -14 0 -11 -12 -24 -32 -33 -20 -8 -36 -24 -40 -39 -20 -72 -30 -141 -24
-165 6 -24 10 -26 38 -20 29 7 30 6 24 -16 -4 -13 -11 -39 -16 -58 -11 -45
-25 -56 -95 -76 -111 -31 -185 -89 -170 -134 3 -11 25 -27 50 -37 25 -9 50
-23 56 -30 9 -11 15 -11 35 3 19 12 38 14 86 9 34 -4 69 -11 79 -16 32 -18 40
-86 36 -297 l-4 -203 27 0 c33 0 59 24 35 34 -20 7 -19 27 7 107 13 42 28 69
38 72 15 4 16 17 12 103 -4 93 -2 106 28 194 32 94 32 95 23 205 -12 131 -10
142 24 120 20 -13 27 -14 40 -4 13 11 14 29 9 104 -9 118 -11 122 -56 145
l-38 19 14 41 c11 31 11 46 3 62 -6 11 -9 31 -6 45 3 19 -5 34 -33 64 -39 41
-43 43 -76 29z m-26 -767 c4 -14 -36 -17 -78 -6 l-25 7 25 7 c35 10 73 6 78
-8z"/>
<path d="M1126 6435 c-3 -9 -14 -58 -25 -108 -14 -71 -17 -110 -11 -172 6 -67
4 -89 -13 -134 -18 -50 -19 -64 -9 -155 6 -55 9 -103 7 -106 -2 -4 -37 -23
-77 -43 -150 -74 -154 -115 -16 -171 71 -29 158 -84 158 -100 0 -7 11 -35 25
-62 20 -37 27 -67 29 -124 2 -68 0 -77 -23 -102 -13 -16 -33 -28 -43 -28 -25
0 -23 -20 2 -21 110 -4 105 -6 108 37 2 21 9 46 16 54 10 11 12 43 9 115 -7
165 -5 236 7 310 9 55 9 80 0 110 -29 95 -31 228 -6 271 18 30 18 31 -7 80
-27 53 -77 236 -77 282 0 52 -40 102 -54 67z m21 -167 c-2 -18 -4 -6 -4 27 0
33 2 48 4 33 2 -15 2 -42 0 -60z m-2 -665 c3 -21 8 -46 10 -55 2 -10 0 -18 -4
-18 -13 0 -101 70 -101 79 0 7 50 25 82 30 4 1 10 -16 13 -36z"/>
<path d="M6633 6381 c-30 -55 -63 -90 -118 -126 -29 -18 -76 -62 -105 -97 -48
-59 -98 -108 -110 -108 -3 0 -11 20 -18 45 -17 64 -45 89 -90 81 -44 -7 -63
-25 -66 -63 -2 -16 -6 -35 -10 -41 -3 -6 -1 -22 5 -36 9 -19 20 -26 39 -26 19
0 29 -6 33 -19 7 -28 1 -31 -65 -31 -58 0 -157 34 -281 97 -43 21 -49 22 -63
8 -14 -13 -14 -15 1 -15 9 0 14 -4 11 -8 -3 -5 12 -14 32 -22 20 -7 62 -29 92
-50 50 -33 170 -80 204 -80 8 0 17 -11 20 -24 7 -28 129 -144 172 -165 83 -39
75 -20 78 -197 2 -87 7 -210 11 -272 l8 -112 -41 -18 c-23 -9 -42 -20 -42 -23
0 -8 141 -20 152 -13 5 3 6 19 3 36 -4 16 -2 67 5 113 9 63 9 97 0 138 -10 49
-8 63 14 133 37 115 58 204 60 244 1 29 16 51 108 148 58 62 111 125 116 140
8 22 1 53 -30 152 -48 150 -63 187 -88 220 l-18 24 -19 -33z m17 -131 c6 0 10
-30 10 -72 1 -44 6 -83 15 -98 8 -14 14 -28 15 -31 0 -10 -124 -96 -175 -121
-36 -18 -65 -24 -105 -23 l-55 1 3 33 c1 19 17 54 36 80 18 25 46 70 61 99 16
29 42 61 59 72 17 10 49 37 71 60 36 37 40 39 47 20 4 -11 12 -20 18 -20z"/>
<path d="M9182 6398 c-15 -15 -16 -74 -2 -83 10 -6 14 -65 5 -65 -3 0 -17 7
-30 16 -24 15 -39 15 -92 -1 -19 -6 -23 -1 -38 52 -22 78 -36 88 -89 61 -22
-11 -59 -38 -82 -58 -23 -21 -55 -41 -72 -45 -26 -5 -40 -19 -47 -45 -7 -29
-45 -77 -100 -124 -126 -111 -122 -144 25 -220 88 -46 150 -93 150 -113 0 -9
9 -46 19 -82 61 -207 65 -229 52 -298 -9 -48 -9 -79 0 -126 6 -34 9 -93 7
-132 l-3 -70 103 -3 c56 -1 102 1 102 6 0 4 -27 21 -60 37 -75 36 -77 44 -61
190 28 256 31 303 26 362 l-6 61 33 15 c18 8 45 19 61 25 15 7 27 16 27 22 0
6 16 33 35 61 42 61 57 113 54 182 -2 31 3 62 11 77 34 61 8 334 -28 298z
m-234 -197 c-1 -47 -9 -98 -16 -113 -11 -24 -11 -33 4 -63 24 -50 10 -60 -79
-59 -58 1 -177 26 -177 38 0 2 7 18 17 37 25 51 54 90 63 84 29 -18 55 36 29
62 -18 18 43 78 98 95 26 9 52 14 56 11 5 -3 7 -44 5 -92z"/>
<path d="M9627 6308 c-14 -18 -30 -43 -36 -55 -6 -12 -20 -24 -30 -28 -16 -5
-19 -14 -18 -49 2 -37 -5 -54 -45 -112 -68 -99 -69 -114 -14 -213 59 -106 102
-160 142 -177 25 -10 31 -18 27 -36 -4 -20 7 -63 61 -253 8 -27 22 -93 31
-145 9 -52 18 -103 20 -112 4 -25 -12 -22 -20 3 -9 29 -26 19 -55 -32 -17 -28
-51 -62 -97 -94 -39 -27 -93 -77 -121 -110 -61 -74 -98 -109 -105 -98 -2 4 -8
22 -12 40 -10 48 -41 83 -75 83 -39 0 -80 -20 -81 -39 -1 -9 -3 -27 -6 -41
-10 -64 1 -87 45 -92 15 -2 28 -10 30 -19 2 -13 -9 -18 -51 -22 -29 -4 -66 -3
-83 2 -43 14 -161 64 -221 95 -57 28 -67 31 -58 16 3 -5 1 -10 -4 -10 -6 0
-11 -4 -11 -10 0 -5 7 -10 16 -10 8 0 13 -4 10 -9 -3 -5 9 -11 27 -15 17 -4
57 -24 89 -46 34 -24 90 -51 142 -67 53 -16 86 -32 86 -40 0 -26 183 -193 197
-180 3 4 18 0 32 -9 l26 -15 1 -162 c0 -89 5 -206 10 -259 5 -53 7 -104 4
-114 -3 -9 -20 -22 -38 -30 -40 -16 -47 -5 -58 84 -5 51 -10 62 -25 62 -11 0
-19 -1 -20 -2 0 -2 -2 -23 -5 -48 -7 -59 -42 -170 -61 -192 -9 -9 -54 -40
-102 -68 -47 -28 -114 -76 -148 -108 -61 -57 -62 -58 -56 -102 13 -107 51
-233 96 -315 32 -59 46 -99 67 -189 20 -84 22 -115 17 -212 l-6 -114 246 0
245 0 -6 33 c-4 17 -9 91 -12 162 -7 140 3 222 35 289 31 67 91 222 91 237 0
11 17 14 72 14 l71 0 4 85 c2 47 5 99 6 115 1 17 -2 47 -6 68 -9 44 -6 45 83
17 38 -12 90 -20 132 -20 65 0 72 -2 121 -39 79 -60 170 -108 219 -116 64 -11
220 -64 241 -83 24 -22 110 -23 115 -2 2 10 -10 20 -35 29 -21 8 -70 35 -110
61 -45 30 -88 50 -115 55 -24 3 -55 8 -71 11 -38 8 -162 129 -182 179 -9 24
-29 49 -49 62 -37 24 -49 61 -34 105 12 35 23 36 40 1 10 -19 20 -27 33 -25
22 4 106 69 103 80 -2 4 3 27 9 52 25 96 34 184 23 215 -14 41 -98 75 -147 61
-18 -6 -33 -16 -33 -22 0 -23 -19 -25 -30 -3 -13 23 -23 233 -14 284 3 19 17
39 37 53 l32 22 7 -27 c5 -16 13 -57 18 -93 20 -121 15 -113 64 -107 24 4 57
2 74 -2 49 -14 45 -1 -11 38 -60 42 -64 54 -66 185 -1 72 4 104 24 162 14 40
28 107 32 149 l6 76 54 32 c142 84 195 137 205 202 3 17 18 22 118 38 63 10
134 22 158 27 23 6 60 10 82 10 l39 0 -2 -45 c-1 -25 0 -45 3 -45 3 0 6 -9 6
-20 0 -12 -10 -23 -28 -29 -30 -11 -39 -27 -57 -104 -22 -93 -13 -129 30 -120
22 4 28 2 25 -8 -2 -8 -12 -38 -21 -66 -16 -52 -17 -53 -80 -72 -117 -37 -185
-82 -185 -125 0 -26 13 -40 50 -51 14 -4 37 -16 51 -26 25 -17 28 -17 40 -3
11 13 26 15 79 11 87 -7 95 -12 114 -60 13 -35 15 -76 10 -249 l-5 -208 30 0
c33 0 49 16 32 33 -16 16 -14 45 10 115 12 37 27 62 35 62 11 0 14 22 14 111
0 89 5 124 24 182 31 96 35 126 26 232 -9 111 -6 120 27 98 24 -16 26 -16 40
3 11 15 13 38 8 104 -8 94 -20 122 -65 145 -28 14 -42 45 -21 45 14 0 19 46 7
67 -5 10 -9 32 -8 48 4 41 -43 98 -81 98 -35 0 -65 -27 -75 -67 -9 -35 -4 -35
-102 -17 -61 11 -88 11 -145 1 -129 -22 -141 -23 -179 -5 -43 20 -46 53 -8 70
17 8 21 16 19 42 -2 17 -8 38 -14 45 -6 7 -14 23 -17 35 -4 14 -18 26 -34 29
-15 4 -37 16 -50 28 -13 11 -55 37 -95 56 -42 20 -76 45 -83 58 l-11 23 -17
-25 c-9 -14 -16 -28 -16 -32 0 -10 -111 -207 -137 -242 -53 -72 -48 -129 23
-249 31 -53 36 -95 37 -338 0 -148 -9 -211 -31 -220 -23 -9 -25 0 -7 35 19 37
14 60 -14 60 -14 0 -23 -9 -27 -25 -3 -14 -11 -25 -16 -25 -6 0 -8 7 -4 15 3
8 2 15 -3 15 -7 0 -14 -43 -40 -265 -5 -44 6 -161 25 -263 5 -27 1 -38 -30
-72 -20 -22 -37 -46 -37 -53 -2 -13 -5 -41 -16 -172 l-8 -90 -100 -6 c-55 -3
-112 -12 -127 -19 -26 -12 -28 -18 -28 -73 0 -33 5 -99 12 -148 14 -107 5
-139 -40 -139 l-28 0 7 62 c4 35 6 66 3 69 -12 19 -160 123 -229 161 -64 34
-84 51 -99 81 -10 21 -17 39 -15 41 2 2 32 0 67 -3 75 -8 87 -3 78 35 -4 15
-2 66 5 114 8 65 9 100 0 139 -10 45 -8 60 10 114 28 82 60 213 64 259 2 31
17 52 101 143 54 58 107 121 117 139 18 34 18 34 -18 136 -19 56 -35 106 -35
110 0 5 10 10 23 12 17 2 21 9 19 28 -2 14 -7 84 -12 155 -4 72 -14 148 -20
170 -9 28 -11 73 -6 155 l8 115 126 0 c133 1 165 9 177 44 9 28 -23 85 -90
161 -31 36 -78 94 -103 130 -25 36 -54 75 -65 87 -11 13 -22 37 -24 55 -2 18
-12 44 -23 58 -11 14 -27 39 -36 55 -29 54 -85 115 -104 115 -11 0 -30 -15
-43 -32z m169 -229 c20 -29 29 -55 30 -88 1 -25 3 -49 3 -53 1 -5 12 -8 24 -8
19 0 30 -12 54 -62 17 -35 33 -73 37 -84 6 -21 6 -21 -46 -9 -29 7 -75 23
-101 36 -44 22 -47 26 -42 54 3 17 8 61 11 98 4 56 2 73 -15 101 -16 25 -18
35 -9 44 18 18 23 15 54 -29z m-141 -16 c14 -13 21 -14 36 -5 24 15 32 2 24
-45 -10 -61 -25 -90 -51 -101 -21 -10 -24 -9 -26 11 -2 34 -3 157 -1 157 1 0
9 -8 18 -17z m818 -481 c41 -27 41 -29 27 -66 -6 -16 -17 -26 -29 -26 -30 0
-34 -16 -20 -81 15 -69 27 -66 31 8 2 29 6 53 11 53 4 0 7 -4 7 -9 0 -5 15
-19 34 -30 l34 -22 -38 -69 c-63 -115 -77 -129 -132 -129 -39 -1 -49 3 -59 22
-7 12 -30 45 -52 74 l-39 52 20 26 c11 14 33 57 47 96 15 38 35 74 46 79 13 8
19 22 19 47 l0 35 28 -18 c15 -9 44 -28 65 -42z m-743 -652 c0 -46 6 -82 16
-103 l17 -31 -44 -38 c-24 -21 -74 -54 -111 -74 -59 -30 -76 -35 -125 -32 -58
3 -58 3 -55 33 2 17 20 55 41 85 21 30 48 73 59 95 29 58 120 130 166 133 l36
3 0 -71z m1388 -267 c4 -14 -36 -17 -78 -6 l-25 7 25 7 c35 10 73 6 78 -8z
m-1565 -1106 c42 -43 77 -85 77 -93 0 -8 -9 -31 -20 -51 -11 -21 -20 -45 -20
-55 0 -9 -18 -36 -40 -60 -22 -24 -40 -47 -40 -52 0 -4 -7 -6 -15 -3 -8 4 -17
1 -21 -5 -4 -7 -10 -5 -16 6 -6 11 -2 29 15 58 47 83 56 172 26 266 -16 48
-81 84 -140 76 -88 -13 -134 -74 -124 -168 8 -71 26 -126 41 -126 13 0 18 -11
29 -67 5 -25 2 -34 -15 -46 -20 -14 -25 -14 -49 1 -39 24 -86 81 -99 120 -6
18 -20 46 -32 61 -11 16 -20 36 -20 44 0 25 66 97 168 183 l97 82 60 -46 c33
-26 95 -82 138 -125z"/>
<path d="M4211 6272 c-24 -46 -43 -178 -38 -272 4 -79 1 -104 -16 -148 -18
-48 -19 -60 -8 -135 17 -128 20 -121 -55 -156 -98 -46 -124 -67 -124 -101 0
-33 18 -48 90 -76 25 -9 71 -33 102 -52 50 -30 59 -41 74 -86 9 -28 21 -54 27
-57 5 -4 11 -42 13 -85 4 -89 -6 -113 -55 -134 -41 -17 -39 -30 5 -30 l36 0
-7 -42 c-9 -53 -41 -146 -57 -165 -6 -8 -53 -39 -102 -68 -50 -30 -118 -78
-151 -108 l-59 -54 12 -88 c13 -86 61 -228 101 -296 55 -94 91 -330 68 -446
l-9 -43 252 0 c235 0 251 1 246 18 -41 136 -29 381 24 481 58 110 99 265 100
378 0 18 -146 126 -225 166 -39 19 -77 43 -86 53 -34 38 -72 198 -52 218 4 4
6 22 5 40 -2 20 3 37 12 45 12 10 16 34 16 100 0 47 -5 103 -9 125 -9 35 -6
76 16 247 3 28 0 63 -8 85 -27 82 -29 210 -3 253 18 30 18 32 -8 84 -29 59
-78 249 -78 301 0 20 -8 40 -19 50 -18 17 -20 17 -30 -2z m19 -186 c-7 -7 -10
9 -9 45 l1 54 9 -45 c5 -28 5 -48 -1 -54z m-6 -638 c3 -13 7 -35 11 -50 3 -16
2 -28 -3 -28 -10 0 -50 27 -80 54 l-24 21 29 12 c43 18 62 16 67 -9z m158
-817 c51 -40 112 -98 135 -128 l42 -54 -25 -52 c-13 -29 -24 -58 -24 -65 0 -7
-16 -29 -35 -49 -19 -20 -35 -40 -35 -45 0 -4 -9 -8 -20 -8 -11 0 -20 -5 -20
-11 0 -5 -4 -7 -10 -4 -16 10 -12 44 8 73 47 71 57 187 23 271 -17 40 -75 71
-134 71 -35 0 -51 -7 -83 -34 l-39 -34 0 -83 c0 -86 17 -149 40 -149 26 0 34
-90 10 -110 -12 -10 -21 -9 -48 3 -40 19 -70 59 -119 156 -42 84 -43 80 23
153 41 46 201 179 211 175 4 -1 49 -35 100 -76z"/>
<path d="M2556 6172 c-3 -5 -15 -53 -27 -107 -17 -80 -20 -115 -14 -186 6 -72
4 -96 -10 -134 -15 -37 -17 -62 -11 -132 3 -47 9 -95 12 -107 4 -19 -6 -27
-76 -61 -101 -49 -127 -75 -114 -112 7 -21 25 -34 85 -58 85 -36 169 -89 169
-109 0 -7 11 -35 25 -62 20 -40 25 -64 25 -126 0 -67 -3 -80 -22 -98 -13 -11
-33 -23 -45 -26 -46 -12 -21 -24 47 -24 l70 0 0 43 c0 24 4 47 9 52 12 12 15
159 6 245 -5 44 -2 95 9 158 15 88 15 95 -2 147 -11 30 -16 55 -12 55 5 0 4
17 -1 38 -14 60 -10 115 11 156 l19 38 -26 52 c-27 52 -83 260 -83 308 0 15
-7 34 -16 42 -18 18 -21 19 -28 8z m24 -158 c0 -24 -4 -44 -10 -44 -5 0 -10
23 -10 51 0 31 4 48 10 44 6 -3 10 -26 10 -51z m-5 -698 c4 -25 5 -49 4 -55
-2 -6 -28 8 -58 31 l-55 42 35 12 c59 22 67 18 74 -30z"/>
<path d="M7762 5798 c-30 -118 -34 -156 -29 -246 5 -80 2 -102 -15 -148 -20
-51 -20 -58 -6 -149 16 -108 17 -107 -59 -140 -37 -15 -50 -16 -99 -6 -80 15
-171 14 -233 -5 -56 -16 -99 -12 -138 13 -30 20 -29 39 2 59 19 12 25 25 25
50 0 19 -4 34 -9 34 -5 0 -14 14 -20 30 -6 18 -21 34 -36 40 -14 5 -43 23 -63
40 -21 16 -59 37 -85 46 -26 9 -57 28 -70 43 l-23 28 -17 -23 c-9 -13 -17 -26
-17 -30 0 -10 -116 -217 -146 -261 -14 -22 -24 -50 -24 -72 0 -37 35 -121 70
-171 18 -25 21 -50 27 -202 8 -192 8 -200 -3 -277 -4 -36 -2 -78 9 -130 9 -42
20 -96 24 -121 l8 -45 79 0 80 -1 -29 20 c-84 61 -94 85 -95 212 0 51 7 91 26
145 16 45 29 104 32 151 l5 78 92 59 c115 73 160 118 169 164 7 40 4 38 141
57 44 7 111 18 148 27 75 16 89 13 64 -15 -38 -42 -16 -77 73 -112 30 -12 78
-36 106 -53 43 -27 55 -40 70 -82 10 -27 24 -61 31 -75 7 -14 13 -56 13 -93 0
-61 -3 -71 -26 -92 -15 -14 -35 -25 -45 -25 -11 0 -19 -4 -19 -10 0 -6 30 -10
71 -10 l71 0 -7 30 c-5 21 -1 39 10 57 16 23 17 44 10 188 -5 116 -3 185 6
239 10 61 11 85 1 119 -29 99 -31 215 -4 261 l19 32 -27 55 c-28 54 -80 248
-80 295 0 32 -17 64 -34 64 -7 0 -18 -19 -24 -42z m29 -161 c-8 -8 -11 5 -10
49 l1 59 10 -48 c8 -35 7 -52 -1 -60z m-779 -294 c34 -23 36 -27 26 -54 -6
-18 -17 -29 -29 -29 -27 0 -41 -33 -29 -65 5 -14 10 -40 10 -58 0 -51 20 -17
27 45 l5 55 22 -21 c12 -12 30 -25 40 -31 16 -9 15 -15 -13 -68 -48 -93 -92
-148 -116 -142 -11 3 -32 5 -46 5 -20 0 -33 10 -54 43 -15 23 -39 54 -52 69
l-25 26 25 34 c13 18 35 61 47 96 13 35 31 67 42 73 11 6 18 21 18 38 0 38 9
44 39 24 14 -9 43 -27 63 -40z m772 -330 c11 -39 18 -93 11 -93 -9 0 -104 73
-105 81 0 6 55 26 77 28 6 1 14 -7 17 -16z"/>
<path d="M8300 5608 c-12 -13 -30 -39 -40 -59 -11 -20 -29 -39 -40 -42 -19 -5
-21 -10 -15 -37 7 -34 -16 -88 -65 -150 -47 -60 -47 -88 -1 -178 49 -93 115
-175 154 -190 18 -7 25 -15 21 -25 -5 -14 18 -114 61 -262 13 -48 37 -164 50
-251 5 -35 3 -45 -16 -63 -13 -12 -30 -21 -38 -21 -21 -1 -51 -24 -51 -40 0
-10 12 -11 48 -5 26 4 66 8 89 9 49 1 49 1 -49 -94 -105 -102 -101 -129 34
-200 109 -58 158 -93 158 -115 0 -11 7 -40 15 -65 32 -97 59 -217 58 -260 -1
-25 -2 -70 -3 -100 -1 -30 0 -107 2 -170 l5 -115 46 -3 c43 -3 46 -5 37 -22
-15 -28 -50 -203 -45 -226 15 -71 12 -140 -7 -188 -19 -48 -20 -57 -8 -154 7
-57 10 -105 9 -106 -2 -2 -41 -22 -87 -46 -46 -24 -90 -54 -99 -67 -14 -21
-14 -25 0 -47 9 -12 42 -33 74 -46 32 -13 83 -38 114 -57 48 -29 58 -40 74
-86 10 -28 22 -58 28 -65 5 -7 11 -45 12 -85 3 -82 -8 -107 -54 -127 -49 -20
-37 -30 34 -28 l65 2 0 43 c0 27 5 46 13 49 16 6 21 161 6 215 -8 33 -4 93 18
262 3 21 -1 52 -8 69 -7 17 -13 45 -14 62 -1 17 -6 54 -10 83 -6 43 -4 59 15
98 l23 47 -27 56 c-29 62 -76 239 -76 287 0 17 -7 41 -16 53 -15 22 -15 22 35
22 28 0 51 5 51 10 0 6 -26 22 -57 36 -32 13 -61 30 -65 37 -12 19 -9 115 8
222 9 55 16 160 17 233 1 91 5 132 13 132 6 0 17 7 24 15 7 8 18 15 24 14 30
-4 47 3 53 19 4 9 19 36 35 59 41 61 59 120 56 183 -1 33 4 65 12 80 19 35 19
222 -1 273 -17 44 -22 46 -38 11 -9 -21 -9 -32 4 -57 29 -58 18 -84 -25 -59
-24 14 -34 15 -61 5 -18 -7 -35 -10 -40 -8 -4 3 -15 29 -24 58 -26 78 -35 84
-86 62 -23 -11 -63 -39 -88 -62 -25 -24 -53 -43 -61 -43 -24 0 -62 -31 -56
-46 8 -20 -11 -27 -20 -6 -4 9 -11 73 -15 142 -4 69 -13 143 -19 165 -9 29
-11 74 -5 159 l7 118 55 -7 c87 -11 200 4 230 30 36 30 27 57 -50 150 -34 42
-86 108 -115 148 -30 40 -64 83 -76 97 -13 14 -23 40 -25 60 -1 20 -11 45 -25
60 -13 14 -31 41 -41 60 -18 36 -83 110 -97 110 -4 0 -17 -10 -28 -22z m154
-238 c27 -32 42 -89 32 -116 -8 -21 11 -44 36 -44 14 0 28 -19 54 -74 19 -41
34 -78 34 -81 0 -14 -88 9 -143 38 -50 25 -58 33 -52 51 3 12 9 57 11 102 5
65 3 83 -10 93 -23 19 -20 61 5 61 4 0 19 -14 33 -30z m-132 -26 c14 -13 21
-14 32 -5 21 17 27 0 19 -55 -9 -65 -70 -127 -75 -76 -3 39 -3 152 1 152 3 0
13 -7 23 -16z m415 -1026 c-2 -51 -10 -105 -17 -120 -10 -22 -10 -32 4 -59 22
-43 21 -44 -22 -58 -29 -10 -52 -10 -102 -1 -54 9 -115 26 -128 36 -5 3 39 87
56 107 8 9 26 17 39 17 17 0 23 6 23 23 0 13 -5 28 -12 35 -25 25 89 110 151
112 10 0 12 -19 8 -92z m42 -1352 c-5 -6 -8 12 -8 45 l2 54 7 -45 c4 -25 4
-49 -1 -54z m-5 -638 c19 -91 14 -95 -52 -41 l-45 37 29 13 c44 18 63 16 68
-9z"/>
<path d="M3490 5408 c-11 -13 -23 -34 -27 -48 -3 -14 -10 -30 -15 -37 -12 -15
-27 -114 -16 -107 4 3 8 -4 8 -16 0 -11 -8 -23 -17 -26 -35 -11 -47 -21 -54
-45 -20 -72 -31 -140 -25 -164 6 -23 10 -26 36 -20 35 8 37 0 14 -65 -21 -61
-26 -65 -92 -84 -123 -35 -198 -98 -173 -145 6 -11 24 -22 40 -26 17 -3 42
-16 56 -27 25 -19 27 -19 45 -3 16 14 30 16 77 11 85 -10 92 -14 109 -54 13
-31 14 -74 11 -249 l-4 -213 26 0 c14 0 33 5 41 10 13 8 12 11 -4 23 -17 13
-18 18 -7 62 18 73 38 115 54 115 12 0 14 22 13 118 -1 105 2 125 27 196 28
76 29 82 22 204 l-8 126 27 -18 c23 -14 30 -15 43 -4 13 10 14 28 8 107 -8
110 -14 125 -55 139 -20 8 -30 18 -30 31 0 12 4 21 10 21 5 0 7 17 4 38 -3 20
-6 52 -7 70 -1 18 -15 48 -30 67 -34 42 -75 47 -107 13z m-2 -745 c4 -14 -53
-18 -85 -6 -15 6 -13 9 12 14 41 10 68 6 73 -8z"/>
<path d="M5339 5338 c-22 -34 -57 -68 -99 -97 -37 -25 -87 -72 -115 -109 -27
-35 -62 -73 -77 -83 l-27 -20 -12 45 c-14 58 -41 86 -82 86 -51 0 -74 -22 -80
-77 -7 -63 5 -93 38 -93 23 0 45 -24 32 -36 -3 -3 -33 -6 -68 -6 -67 -2 -114
14 -262 88 -73 37 -81 39 -72 24 3 -5 -2 -10 -12 -10 -17 -1 -17 -1 -1 -14 10
-7 15 -15 12 -18 -3 -3 11 -9 30 -12 19 -4 60 -24 93 -46 33 -23 95 -52 146
-67 62 -20 87 -32 87 -44 0 -9 28 -43 63 -75 63 -61 127 -110 127 -99 0 3 13
-2 30 -11 l29 -18 -6 -88 c-3 -51 0 -139 7 -209 7 -66 14 -148 14 -182 l1 -61
-44 -22 -45 -21 49 -6 c26 -4 62 -7 80 -7 l32 0 6 128 c4 70 4 151 0 179 -4
40 -1 66 15 110 12 32 28 91 37 132 8 40 18 78 22 85 4 6 6 23 4 38 -2 23 15
46 99 134 56 59 109 122 118 141 15 32 15 37 -23 151 -58 177 -86 241 -106
242 -4 0 -22 -23 -40 -52z m46 -182 c1 -39 7 -82 14 -95 16 -28 1 -47 -79
-100 -83 -55 -125 -71 -185 -71 -54 0 -55 1 -55 29 0 16 14 50 33 77 18 27 47
74 65 104 17 30 46 65 64 77 19 13 49 38 67 57 l33 34 20 -20 c16 -16 21 -35
23 -92z"/>
<path d="M2042 5299 c-30 -55 -52 -78 -115 -119 -37 -25 -83 -68 -112 -106
-51 -67 -89 -99 -104 -90 -5 3 -12 21 -15 39 -9 47 -40 77 -79 77 -52 0 -73
-22 -80 -81 -8 -61 4 -89 39 -89 22 0 44 -24 32 -36 -3 -2 -34 -5 -69 -6 -51
-1 -76 4 -122 25 -32 15 -60 27 -63 27 -3 0 -37 16 -75 35 -75 38 -84 40 -74
25 3 -5 -2 -10 -12 -10 -17 -1 -17 -1 -1 -14 10 -7 15 -16 11 -19 -3 -4 4 -7
16 -7 26 0 69 -21 123 -60 21 -15 79 -40 128 -56 67 -20 90 -32 90 -44 0 -9
28 -44 63 -76 63 -61 127 -110 127 -99 0 3 13 -2 30 -11 l29 -18 -6 -87 c-4
-56 1 -150 12 -263 15 -142 16 -178 5 -191 -7 -8 -16 -15 -21 -15 -4 0 -20 -5
-36 -12 l-28 -11 45 -8 c25 -4 62 -8 83 -8 39 -1 39 -1 36 37 -2 20 1 80 5
132 5 58 4 110 -2 131 -8 29 -5 50 15 110 13 41 28 98 34 128 6 29 15 65 21
80 6 14 10 38 9 53 -2 22 17 47 99 134 56 59 109 122 117 140 16 32 15 37 -22
151 -58 180 -86 242 -108 243 -4 0 -16 -14 -25 -31z m28 -189 c0 -33 7 -77 16
-98 l15 -37 -43 -38 c-24 -20 -73 -53 -109 -72 -53 -28 -78 -35 -123 -35 l-56
0 0 31 c0 20 13 49 33 78 19 25 47 70 62 99 17 32 47 66 74 87 25 18 57 44 69
58 23 25 24 25 43 6 14 -14 19 -33 19 -79z"/>
<path d="M5924 4922 c-6 -4 -26 -29 -43 -57 -17 -27 -39 -53 -48 -56 -12 -4
-17 -18 -18 -51 0 -38 -9 -59 -47 -115 -66 -96 -67 -104 -16 -201 52 -98 111
-170 149 -184 26 -9 29 -15 29 -50 0 -23 9 -73 20 -112 11 -39 27 -93 35 -121
15 -53 40 -178 50 -257 6 -39 4 -49 -14 -67 -12 -12 -29 -21 -38 -21 -23 -1
-53 -23 -53 -40 0 -10 11 -11 48 -5 26 5 64 9 84 9 52 2 62 15 49 62 -6 22
-11 83 -11 136 0 67 -5 111 -16 138 -14 34 -15 62 -9 163 l7 122 121 1 c67 1
134 6 149 12 63 25 42 86 -72 217 -34 39 -76 93 -95 120 -18 28 -44 60 -57 73
-17 15 -25 34 -26 59 -1 20 -10 46 -21 57 -10 12 -26 36 -36 55 -17 33 -92
121 -104 121 -3 0 -11 -4 -17 -8z m141 -252 c19 -27 30 -58 34 -97 5 -50 9
-58 29 -61 16 -3 31 -20 51 -60 16 -31 32 -67 36 -80 6 -22 5 -23 -32 -17 -21
4 -66 20 -101 37 -48 24 -61 35 -56 47 3 9 8 54 11 101 5 71 3 88 -11 99 -19
16 -21 42 -4 59 15 15 11 18 43 -28z m-133 -27 c14 -13 21 -14 30 -5 19 19 28
14 28 -15 0 -50 -20 -103 -46 -119 -13 -9 -27 -14 -31 -11 -7 7 -10 167 -4
167 3 0 13 -8 23 -17z"/>
<path d="M2650 4747 c0 -31 -38 -174 -55 -206 -8 -16 -46 -45 -97 -73 -79 -45
-202 -140 -219 -169 -18 -34 43 -273 94 -364 31 -56 46 -99 67 -189 19 -83 22
-116 17 -212 l-5 -114 245 0 245 0 -6 38 c-3 20 -9 92 -12 159 -7 137 4 218
40 298 69 149 92 230 98 344 l3 54 -81 62 c-44 33 -112 77 -151 98 -39 20 -75
43 -82 50 -19 24 -50 124 -57 187 -5 50 -10 60 -25 60 -13 0 -19 -7 -19 -23z
m213 -409 c42 -43 77 -84 77 -93 0 -9 -9 -33 -20 -55 -11 -22 -20 -46 -20 -54
0 -8 -12 -28 -26 -43 -14 -15 -33 -38 -42 -49 -10 -12 -27 -25 -39 -29 -20 -5
-23 -3 -23 20 0 15 8 39 19 53 41 59 50 206 16 271 -21 42 -82 70 -136 64 -54
-6 -92 -35 -113 -84 -23 -56 1 -209 34 -209 10 0 16 -17 25 -70 5 -28 2 -37
-14 -47 -16 -10 -25 -10 -47 2 -30 15 -94 90 -94 109 0 7 -13 33 -30 59 -16
26 -30 54 -30 61 0 21 76 101 174 186 l91 78 60 -47 c33 -25 95 -81 138 -123z"/>
<path d="M7498 4636 c-18 -30 -42 -59 -53 -64 -15 -7 -19 -17 -17 -48 3 -33
-5 -51 -47 -114 -34 -49 -51 -85 -51 -105 0 -64 111 -239 177 -277 27 -16 33
-26 33 -53 0 -18 9 -64 20 -101 40 -138 48 -171 71 -289 12 -67 19 -133 16
-147 -5 -18 -19 -30 -54 -44 -27 -10 -50 -18 -53 -17 -3 1 -14 5 -24 9 -14 5
-17 4 -12 -4 4 -8 0 -12 -11 -12 -17 -1 -17 -1 -1 -14 10 -7 15 -16 11 -19 -3
-4 4 -7 16 -7 25 0 61 -17 124 -60 25 -16 84 -42 131 -57 64 -20 86 -31 86
-44 0 -9 29 -43 63 -76 67 -62 127 -109 127 -98 0 3 13 -2 30 -11 l29 -18 -6
-87 c-4 -56 1 -150 12 -264 20 -195 21 -192 -43 -213 -27 -9 -34 -9 -39 4 -5
13 -8 13 -24 -2 -11 -9 -19 -23 -19 -29 0 -14 -103 -201 -143 -259 -25 -35
-32 -64 -28 -106 1 -8 22 -55 46 -105 25 -49 45 -101 45 -115 0 -283 9 -537
23 -609 9 -46 19 -86 21 -88 7 -7 156 -11 156 -4 0 4 -16 15 -34 25 -75 40
-81 54 -81 189 0 104 3 131 23 182 13 33 26 93 29 133 l6 74 97 64 c109 71
160 122 160 160 0 17 8 27 27 35 36 13 276 52 338 54 102 4 115 5 115 14 0 9
-51 16 -205 27 -66 4 -106 2 -148 -9 -58 -15 -89 -12 -136 12 -29 16 -27 49 4
61 20 8 24 16 23 45 -1 19 -5 35 -9 35 -4 0 -12 14 -18 30 -7 20 -22 36 -43
45 -19 7 -42 23 -52 34 -11 12 -46 31 -78 42 -32 12 -61 26 -64 31 -3 4 26 5
65 2 l71 -7 -2 49 c-1 27 2 87 6 134 5 52 5 99 -2 121 -7 27 -5 48 10 95 10
32 27 97 38 143 11 46 24 89 27 95 4 6 6 23 4 38 -2 21 17 47 101 138 57 61
109 124 117 140 13 26 10 40 -38 187 -29 87 -62 169 -73 183 l-20 25 -17 -22
c-9 -11 -23 -34 -33 -51 -9 -17 -46 -51 -83 -75 -40 -27 -89 -73 -121 -112
-56 -72 -88 -100 -103 -91 -5 3 -12 21 -15 39 -9 47 -40 77 -79 77 -52 0 -73
-22 -80 -81 -7 -57 5 -92 31 -87 22 3 42 -10 42 -28 0 -21 -135 -19 -175 2
-16 9 -54 25 -83 36 -29 11 -50 23 -47 26 4 4 32 9 63 12 l57 5 -3 35 c-1 19
-4 85 -6 145 -2 75 -8 126 -20 156 -15 39 -16 62 -9 163 l8 118 132 2 c113 1
135 4 152 20 12 11 21 29 21 41 0 28 -43 94 -114 175 -32 36 -72 88 -91 115
-18 28 -42 58 -53 69 -12 10 -24 37 -28 62 -3 24 -13 49 -21 56 -8 6 -23 29
-34 50 -27 53 -87 118 -110 118 -11 0 -30 -21 -51 -54z m181 -198 c17 -21 26
-48 30 -92 5 -54 9 -61 29 -64 12 -2 28 -13 34 -25 17 -30 67 -141 65 -144 -7
-7 -121 30 -159 51 -43 25 -46 29 -38 52 5 13 10 57 12 97 1 55 -3 79 -16 100
-15 22 -16 30 -6 42 17 20 21 19 49 -17z m-111 -38 c7 0 12 5 12 10 0 6 5 10
10 10 16 0 12 -88 -5 -120 -8 -16 -24 -34 -34 -40 -16 -8 -21 -5 -29 19 -6 18
-7 44 -2 68 5 21 6 49 3 63 -6 24 -5 24 14 8 11 -10 25 -18 31 -18z m802 -910
c0 -33 7 -77 16 -98 l15 -37 -43 -38 c-24 -20 -73 -53 -109 -72 -53 -28 -78
-35 -123 -35 l-56 0 0 32 c0 18 11 45 25 64 14 19 43 63 63 98 25 44 59 84
107 123 67 56 70 58 87 41 13 -13 18 -34 18 -78z m-270 -1196 c30 -21 57 -38
58 -40 2 -1 1 -16 -3 -33 -4 -21 -13 -31 -25 -31 -32 0 -44 -26 -31 -69 6 -21
11 -48 11 -60 0 -45 18 -10 24 48 l7 59 22 -21 c13 -12 31 -26 41 -32 16 -9
14 -16 -21 -79 -21 -37 -51 -83 -68 -101 -27 -29 -34 -32 -72 -28 -36 4 -46
11 -69 46 -14 23 -38 54 -51 69 l-25 27 20 25 c11 15 32 60 47 100 18 50 33
76 46 79 14 4 19 14 19 41 0 20 3 36 8 36 4 0 32 -16 62 -36z"/>
<path d="M6627 4096 c-9 -14 -17 -28 -17 -32 0 -12 -122 -228 -141 -249 -9
-11 -22 -37 -28 -59 -12 -45 6 -101 58 -186 18 -29 32 -65 31 -83 0 -233 9
-536 19 -587 24 -134 18 -123 66 -117 23 4 57 2 74 -3 49 -14 45 4 -9 39 -59
38 -70 67 -70 188 0 63 6 101 26 160 15 43 29 110 32 149 l4 72 54 33 c151 95
196 139 206 204 3 16 16 22 73 32 118 22 218 36 271 38 75 4 135 16 129 26 -3
4 -23 8 -43 7 -20 -1 -70 5 -109 12 -62 12 -83 12 -140 0 -106 -21 -168 -19
-194 7 -25 24 -20 52 11 60 16 4 20 12 17 39 -2 18 -8 39 -14 46 -6 7 -14 23
-17 35 -4 14 -19 26 -34 30 -15 3 -40 18 -55 34 -16 15 -50 35 -75 44 -63 23
-92 42 -101 67 -7 20 -8 19 -24 -6z m101 -113 c28 -19 52 -38 52 -43 0 -18
-21 -63 -27 -57 -3 4 -14 2 -25 -4 -15 -8 -19 -18 -14 -37 3 -15 9 -45 13 -67
10 -48 18 -38 28 34 6 44 10 52 19 40 6 -8 23 -22 38 -31 l26 -17 -27 -54
c-15 -30 -42 -75 -61 -100 -31 -44 -35 -46 -79 -44 -45 2 -47 3 -98 75 l-52
72 23 34 c13 19 33 62 46 95 12 34 31 66 41 72 13 7 19 21 19 45 0 25 3 33 13
28 6 -4 36 -23 65 -41z"/>
<path d="M5299 4033 c-8 -85 -40 -204 -62 -234 -7 -8 -55 -41 -107 -72 -52
-31 -121 -80 -152 -110 -56 -52 -57 -54 -51 -97 12 -107 51 -233 96 -315 32
-59 46 -99 67 -189 20 -84 22 -115 17 -212 l-6 -114 246 0 245 0 -6 33 c-4 17
-9 89 -13 159 -6 142 5 223 41 303 67 144 86 213 100 342 l5 51 -79 61 c-43
34 -109 77 -147 97 -37 19 -78 46 -90 59 -25 28 -49 106 -59 188 -6 47 -10 57
-25 57 -11 0 -19 -3 -20 -7z m244 -456 c50 -57 51 -59 38 -90 -7 -18 -20 -49
-27 -71 -8 -21 -26 -50 -39 -65 -14 -14 -30 -33 -37 -42 -7 -10 -23 -20 -34
-23 -33 -10 -37 19 -10 67 48 84 56 190 22 272 -13 30 -78 74 -103 69 -7 -1
-28 -2 -45 -3 -69 -2 -122 -80 -113 -164 8 -71 26 -127 40 -127 7 0 18 -21 24
-47 11 -41 10 -48 -6 -65 -18 -17 -21 -17 -49 -3 -37 18 -86 78 -102 123 -6
18 -21 46 -33 63 -13 19 -19 38 -15 52 6 24 107 127 201 204 l60 50 89 -71
c49 -39 112 -97 139 -129z"/>
<path d="M3401 3837 c-26 -68 -42 -192 -36 -272 6 -70 4 -93 -13 -142 -19 -55
-20 -65 -7 -153 7 -52 11 -98 9 -102 -2 -3 -34 -20 -70 -37 -91 -42 -124 -68
-124 -95 0 -30 26 -53 90 -77 29 -11 72 -33 96 -50 23 -16 47 -29 52 -29 5 0
19 -27 31 -60 12 -32 26 -62 31 -65 6 -4 10 -43 10 -89 0 -90 -7 -104 -63
-125 -44 -17 -24 -28 45 -27 l63 2 3 44 c2 25 7 47 12 50 9 5 10 56 7 280 -1
47 3 119 7 161 6 55 5 86 -5 115 -7 21 -12 49 -10 61 1 12 -2 38 -7 57 -12 40
1 112 24 137 13 14 11 23 -16 80 -16 35 -33 80 -36 99 -3 19 -15 64 -25 99
-10 35 -19 76 -19 93 0 33 -16 68 -31 68 -5 0 -13 -10 -18 -23z m29 -144 c0
-24 -4 -43 -10 -43 -6 0 -10 26 -10 58 0 40 3 53 10 42 5 -8 10 -34 10 -57z
m-6 -696 c5 -26 6 -50 3 -53 -8 -8 -93 56 -95 71 -2 11 56 35 73 31 6 -1 14
-24 19 -49z"/>
<path d="M7177 3534 c-4 -4 -7 -21 -7 -38 0 -34 -31 -151 -49 -184 -6 -12 -54
-47 -106 -78 -53 -30 -122 -80 -156 -111 -60 -56 -60 -56 -54 -102 16 -121 47
-219 105 -331 49 -95 74 -209 73 -340 0 -63 -2 -124 -4 -135 -4 -20 2 -20 245
-23 l248 -2 -6 27 c-3 16 -10 78 -16 140 -12 125 3 249 38 327 80 174 111 294
103 392 -2 18 -139 118 -224 164 -102 55 -117 78 -141 225 -8 48 -16 71 -27
73 -8 1 -18 0 -22 -4z m125 -342 c42 -34 98 -87 124 -117 l47 -56 -21 -47
c-12 -26 -24 -57 -27 -69 -3 -12 -21 -38 -40 -59 -19 -21 -35 -42 -35 -47 0
-5 -6 -7 -14 -4 -7 3 -18 1 -24 -5 -7 -7 -12 -3 -17 12 -5 15 0 31 14 51 48
65 60 191 26 273 -18 43 -84 79 -134 73 -47 -5 -96 -38 -117 -79 -26 -50 -2
-218 31 -218 8 0 18 -21 24 -47 9 -43 8 -50 -10 -65 -19 -16 -22 -16 -52 2
-18 11 -43 34 -56 51 -30 40 -91 159 -91 178 0 24 68 98 167 181 83 69 98 78
112 67 9 -8 51 -41 93 -75z"/>
<path d="M4170 3373 c-19 -8 -49 -45 -50 -61 0 -7 -7 -27 -16 -44 -16 -31 -25
-108 -12 -108 19 0 -3 -34 -29 -45 -33 -14 -35 -18 -53 -105 -17 -80 -11 -115
20 -117 14 0 28 -1 32 -2 4 -1 -3 -29 -15 -63 l-22 -62 -78 -27 c-105 -35
-161 -75 -165 -116 -3 -30 0 -33 63 -63 49 -23 70 -29 78 -21 12 12 107 15
145 4 16 -4 30 -21 43 -49 16 -39 18 -64 14 -213 -2 -93 -5 -173 -6 -178 -1
-4 -1 -23 0 -40 1 -27 5 -33 24 -33 34 0 55 16 39 32 -17 17 -15 51 5 116 11
35 24 57 35 60 16 4 18 18 18 118 0 91 4 127 21 177 33 95 38 132 29 236 -5
53 -5 100 -1 104 5 5 18 3 30 -5 20 -11 24 -11 37 7 12 16 13 37 8 100 -9 104
-17 123 -59 141 -31 13 -50 44 -26 44 14 0 19 59 6 77 -7 9 -11 29 -9 44 3 21
-5 39 -27 64 -30 34 -47 40 -79 28z m-28 -775 c-5 -5 -28 -6 -51 -2 -46 7 -44
20 4 26 33 4 61 -10 47 -24z"/>
<path d="M6161 3119 c-19 -31 -19 -31 -23 -8 -2 13 -13 -46 -25 -131 -20 -133
-21 -168 -13 -245 6 -49 16 -107 22 -128 11 -35 10 -39 -19 -70 -45 -47 -50
-63 -57 -162 -4 -49 -9 -106 -12 -126 l-5 -36 -94 -6 c-52 -4 -111 -13 -131
-22 -35 -14 -36 -17 -31 -53 3 -20 9 -94 13 -163 7 -122 6 -127 -14 -138 -11
-6 -31 -11 -43 -11 -16 0 -20 -3 -13 -10 6 -6 41 -10 79 -8 l67 3 2 147 c1
147 1 148 24 148 12 0 39 -7 60 -16 20 -8 78 -19 127 -22 81 -6 94 -10 130
-39 62 -49 181 -113 212 -113 39 -1 218 -63 242 -84 14 -12 32 -16 67 -14 60
4 65 24 11 43 -21 7 -69 34 -107 59 -49 33 -85 49 -127 57 -84 15 -82 14 -155
82 -44 40 -74 79 -87 110 -11 26 -24 47 -29 47 -20 0 -62 50 -62 74 0 28 19
76 31 76 4 0 12 -13 18 -30 13 -38 29 -38 82 3 52 39 73 95 83 218 10 120 6
130 -60 152 -67 22 -124 10 -124 -26 0 -20 -1 -20 -17 -4 -15 15 -19 41 -21
167 -4 164 -9 147 63 205 19 16 19 16 -7 10 -33 -6 -32 -7 -13 37 10 26 11 38
3 46 -18 18 -27 15 -47 -19z"/>
<path d="M4674 2652 c-9 -11 -27 -45 -40 -78 -20 -46 -24 -69 -19 -107 6 -46
5 -48 -24 -58 -32 -11 -38 -24 -61 -130 -16 -70 -3 -103 35 -93 30 8 31 -3 7
-71 -19 -53 -38 -68 -107 -85 -62 -15 -148 -71 -156 -101 -9 -36 -3 -44 66
-78 54 -27 61 -29 76 -15 14 12 30 14 76 9 85 -10 92 -13 109 -53 16 -38 17
-82 10 -334 l-3 -128 33 0 c32 0 59 20 36 28 -29 9 7 171 40 180 15 3 16 19
15 120 -1 105 2 125 26 187 31 82 32 96 22 235 l-8 104 26 -17 c14 -9 31 -17
36 -17 9 0 32 55 26 62 -2 1 -5 35 -8 75 -7 86 -17 107 -57 121 -20 8 -30 18
-30 31 0 12 5 21 11 21 7 0 9 13 5 38 -4 20 -8 52 -9 70 -3 47 -50 102 -88
102 -16 0 -36 -8 -45 -18z m-6 -749 c2 -9 -9 -13 -37 -13 -47 0 -64 17 -24 23
41 6 56 4 61 -10z"/>
<path d="M7266 2133 c-9 -66 -43 -174 -62 -195 -9 -9 -55 -40 -103 -68 -47
-28 -113 -75 -146 -104 -56 -52 -59 -56 -57 -97 6 -96 58 -260 112 -352 29
-49 70 -228 71 -306 1 -38 -2 -94 -6 -125 l-7 -56 247 0 247 0 -6 38 c-3 20
-9 92 -12 159 -7 133 4 219 36 288 45 95 89 224 94 280 4 33 9 74 12 92 4 30
0 36 -72 93 -42 34 -112 79 -155 101 -43 21 -85 49 -93 61 -18 28 -56 171 -56
210 0 21 -5 28 -19 28 -14 0 -20 -10 -25 -47z m255 -421 c40 -52 41 -57 29
-86 -7 -17 -19 -50 -27 -73 -9 -24 -19 -43 -23 -43 -4 0 -20 -18 -35 -40 -17
-24 -34 -39 -42 -36 -7 3 -13 1 -13 -4 0 -6 -4 -10 -10 -10 -16 0 -11 46 9 82
43 75 51 201 16 267 -34 67 -140 88 -205 41 -42 -30 -53 -62 -51 -144 2 -71
11 -99 41 -128 10 -9 21 -34 25 -54 6 -33 3 -41 -16 -56 -20 -17 -24 -17 -39
-3 -9 8 -22 15 -28 15 -6 0 -18 13 -27 29 -8 16 -18 31 -22 33 -5 1 -25 37
-46 80 -30 59 -37 80 -29 95 14 24 133 140 202 196 l55 44 97 -75 c54 -41 116
-100 139 -130z"/>
<path d="M5221 2051 c-11 -11 -29 -38 -40 -59 -11 -22 -29 -42 -41 -45 -16 -4
-20 -13 -20 -50 0 -37 -8 -57 -46 -111 -64 -94 -65 -114 -14 -211 49 -93 113
-173 145 -181 19 -5 23 -14 28 -57 3 -29 15 -83 27 -122 49 -164 80 -308 80
-376 0 -40 -14 -55 -72 -82 -64 -28 -47 -39 50 -31 106 8 114 13 100 62 -6 20
-11 82 -12 137 -1 60 -8 124 -19 160 -15 52 -16 72 -5 165 l11 105 129 1 c126
0 129 1 156 27 l27 27 -23 44 c-13 24 -45 68 -71 97 -73 83 -202 260 -196 269
3 5 1 11 -5 15 -5 3 -10 17 -10 30 0 13 -6 28 -13 32 -8 4 -22 22 -32 38 -44
73 -69 105 -91 120 -22 14 -25 14 -43 -4z m155 -252 c22 -33 29 -53 29 -93 0
-48 2 -51 26 -54 23 -3 32 -15 63 -82 20 -44 36 -81 36 -83 0 -10 -112 23
-152 44 -24 13 -44 24 -46 25 -1 1 2 43 8 94 10 85 9 96 -9 130 -14 28 -16 41
-8 49 17 17 22 14 53 -30z m-141 -16 c14 -13 21 -14 36 -5 18 11 19 9 19 -44
0 -49 -4 -59 -31 -87 l-32 -31 -8 22 c-7 18 -9 162 -2 162 1 0 9 -8 18 -17z"/>
<path d="M5933 1438 c-11 -13 -28 -37 -37 -55 -9 -17 -25 -34 -36 -38 -16 -5
-20 -15 -20 -46 0 -44 -18 -85 -62 -141 -47 -60 -47 -91 2 -183 51 -96 104
-165 141 -178 23 -9 27 -18 32 -61 3 -28 15 -82 27 -121 51 -169 80 -308 80
-382 0 -42 -1 -43 -55 -68 -79 -38 -71 -48 33 -40 100 8 118 18 102 59 -5 15
-10 71 -10 125 0 60 -6 114 -14 140 -20 54 -23 108 -12 216 l8 90 127 1 c132
0 165 8 176 44 8 25 -27 88 -87 156 -59 65 -198 252 -196 261 2 10 -10 43 -23
63 -5 8 -22 38 -39 65 -33 57 -86 115 -104 115 -7 0 -22 -10 -33 -22z m163
-239 c22 -33 29 -53 29 -92 0 -46 2 -52 25 -57 19 -4 34 -23 62 -80 21 -41 38
-78 38 -81 0 -12 -108 19 -152 42 -24 13 -44 24 -45 24 -1 1 2 43 7 95 9 84 8
97 -9 131 -14 27 -16 40 -8 48 17 17 22 14 53 -30z m-141 -15 c9 -9 23 -13 33
-9 26 10 26 8 24 -38 -4 -58 -19 -92 -47 -105 -22 -10 -25 -9 -29 21 -5 28 -4
147 1 147 1 0 9 -7 18 -16z"/>
<path d="M6679 1343 c-16 -4 -27 -23 -64 -108 -17 -39 -26 -105 -14 -105 3 0
6 -7 6 -16 0 -9 -15 -23 -33 -30 -27 -11 -34 -21 -39 -51 -4 -21 -11 -51 -16
-67 -22 -70 -4 -125 33 -105 27 14 29 9 17 -37 -22 -86 -25 -89 -102 -113 -40
-13 -93 -36 -119 -53 -81 -51 -77 -90 13 -131 44 -21 64 -26 72 -18 12 12 87
15 137 5 26 -6 36 -15 51 -49 17 -38 18 -63 14 -253 l-5 -212 23 0 c13 0 31 6
41 13 17 12 17 14 2 20 -9 4 -16 17 -16 30 0 40 41 147 56 147 11 0 14 22 14
108 0 93 4 122 29 200 30 91 34 165 16 277 -6 39 9 65 27 47 17 -17 45 -15 53
5 3 10 3 58 -1 107 -6 78 -10 93 -32 113 -14 13 -31 23 -38 23 -19 0 -27 19
-15 34 27 33 6 155 -34 196 -28 29 -41 33 -76 23z m-24 -764 c11 -17 -1 -21
-50 -13 -32 4 -43 9 -34 15 20 12 77 11 84 -2z"/>
</g>
</svg>
