<?xml version="1.0" standalone="no"?>
<!DOCTYPE svg PUBLIC "-//W3C//DTD SVG 20010904//EN"
 "http://www.w3.org/TR/2001/REC-SVG-20010904/DTD/svg10.dtd">
<svg version="1.0" xmlns="http://www.w3.org/2000/svg"
 width="1280.000000pt" height="853.000000pt" viewBox="0 0 1280.000000 853.000000"
 preserveAspectRatio="xMidYMid meet">
<metadata>
Created by potrace 1.15, written by Peter Selinger 2001-2017
</metadata>
<g transform="translate(0.000000,853.000000) scale(0.100000,-0.100000)"
fill="#673ab7" stroke="none">
<path d="M3787 8347 c-10 -27 45 -119 93 -155 40 -31 48 -33 94 -28 225 24
289 20 310 -22 7 -15 16 -67 20 -117 7 -108 44 -277 82 -371 14 -38 51 -112
81 -166 30 -53 54 -105 54 -115 0 -10 -3 -77 -7 -150 -10 -198 13 -311 102
-496 29 -61 34 -82 34 -143 0 -177 77 -347 230 -510 58 -61 72 -84 105 -170
126 -329 272 -488 458 -502 l68 -5 -48 -33 c-108 -76 -159 -124 -280 -261
-139 -157 -406 -407 -458 -429 -82 -34 -217 -67 -300 -73 -73 -5 -90 -9 -93
-23 -2 -10 6 -19 19 -23 13 -4 29 -14 37 -21 8 -9 36 -14 73 -14 32 0 59 -2
59 -5 0 -20 -38 -55 -80 -75 -64 -30 -64 -54 -2 -58 28 -2 56 3 80 16 20 10
55 25 76 32 22 7 73 28 114 47 41 18 76 32 78 30 3 -2 -26 -55 -62 -118 -138
-235 -314 -630 -350 -786 -9 -37 -14 -87 -11 -110 5 -50 31 -95 51 -87 32 12
83 139 126 314 61 246 120 383 207 486 52 62 84 72 139 44 50 -26 73 -25 174
5 115 34 126 33 176 -19 93 -97 178 -109 282 -40 31 20 71 38 91 40 20 2 62 5
93 8 l57 4 -18 -42 c-26 -60 -49 -166 -61 -286 -18 -178 -23 -570 -10 -770 22
-335 23 -497 6 -580 -18 -87 -94 -247 -145 -303 -54 -60 -84 -72 -146 -57 -64
15 -99 2 -129 -49 -18 -31 -19 -40 -8 -103 22 -127 17 -173 -29 -266 -32 -62
-44 -101 -51 -160 -13 -103 -12 -120 2 -137 19 -23 37 -18 77 18 86 77 123
122 153 185 78 162 90 179 90 125 0 -16 4 -86 10 -158 28 -380 30 -437 20
-517 -5 -45 -16 -88 -24 -97 -35 -39 -56 -106 -56 -181 0 -42 -7 -129 -15
-194 -11 -91 -12 -136 -4 -199 16 -127 17 -130 39 -124 15 4 20 0 20 -14 0
-18 10 -23 37 -20 6 1 13 -9 15 -21 2 -16 11 -24 28 -26 14 -2 29 -10 33 -18
11 -19 36 -18 44 2 5 13 8 12 25 -6 25 -27 59 -22 76 10 10 19 11 61 6 180 -6
142 -8 388 -5 645 2 182 46 437 121 700 22 77 47 187 55 245 24 168 19 157 88
192 79 39 142 81 192 128 22 21 75 55 118 76 102 50 142 90 184 183 19 41 64
122 101 180 82 132 259 481 312 619 67 173 81 238 110 522 6 58 22 155 36 215
15 61 29 126 31 146 4 32 8 35 29 31 23 -4 24 -2 22 39 -1 24 4 75 11 112 11
66 9 110 -10 172 -7 26 -1 45 45 136 29 59 61 136 71 173 13 46 23 66 34 66
35 0 119 50 154 90 86 101 88 195 5 382 -71 158 -84 223 -63 304 9 34 15 91
14 134 -2 72 -1 79 50 179 29 57 74 138 101 181 59 94 135 245 188 371 22 52
72 144 111 204 40 61 111 188 159 283 48 94 92 172 98 172 13 0 24 -23 24 -51
0 -41 62 -3 94 59 14 28 14 32 -5 56 -47 60 -115 72 -213 37 -115 -40 -213
-131 -421 -390 -75 -94 -140 -173 -144 -175 -5 -3 -6 5 -4 18 3 14 0 32 -6 43
-8 14 -11 14 -11 3 0 -13 -2 -13 -11 0 -9 12 -10 11 -4 -5 4 -11 9 -37 12 -57
5 -32 1 -43 -26 -73 -17 -20 -31 -31 -31 -26 0 5 5 13 10 16 17 10 11 96 -11
175 -12 41 -21 83 -21 93 0 9 -4 15 -9 11 -5 -3 -8 -1 -7 4 2 6 -14 33 -34 60
-27 37 -32 49 -20 47 9 -1 16 -8 14 -15 -1 -6 2 -8 9 -4 7 4 9 3 6 -3 -4 -6 0
-19 8 -29 9 -12 14 -14 15 -6 0 15 20 6 20 -9 0 -6 -5 -7 -12 -3 -7 4 -8 3 -4
-5 4 -6 12 -8 18 -5 7 4 8 2 4 -4 -4 -7 -4 -17 0 -23 5 -8 9 -8 14 1 5 8 9 7
13 -5 4 -9 3 -14 -2 -11 -21 13 -18 -27 4 -66 14 -24 25 -36 25 -28 0 13 1 13
10 0 9 -13 10 -13 10 0 1 9 6 5 15 -10 8 -14 14 -21 15 -17 0 13 -51 110 -81
152 -30 42 -132 155 -108 120 7 -11 0 -7 -19 9 -18 17 -32 32 -32 34 0 3 9 -3
20 -13 37 -34 20 1 -23 46 -39 41 -127 107 -184 137 -43 24 -172 22 -280 -4
-54 -12 -116 -26 -138 -30 -33 -6 -36 -8 -17 -13 22 -6 22 -7 -10 -22 -66 -33
-102 -42 -157 -41 -31 1 -62 -2 -69 -7 -8 -4 23 -6 69 -4 45 2 88 8 96 15 7 6
16 8 20 5 14 -15 -69 -35 -167 -41 -58 -4 -123 -11 -145 -16 -22 -5 -73 -14
-112 -20 -40 -7 -75 -16 -78 -20 -5 -8 9 -7 76 5 21 4 45 3 57 -4 15 -8 30 -7
59 4 l38 15 -45 -5 c-52 -5 -44 0 17 14 25 5 41 5 37 0 -3 -5 5 -9 18 -10 24
-1 -79 -37 -122 -43 -54 -7 -108 -27 -114 -42 -4 -10 -2 -14 6 -10 16 6 81 25
133 37 22 6 55 15 73 21 52 16 48 3 -10 -30 -29 -16 -75 -50 -101 -75 -42 -39
-47 -48 -38 -65 7 -14 8 -23 1 -27 -15 -9 -12 -27 3 -19 10 6 10 4 0 -7 -20
-21 -15 -32 12 -27 29 6 30 1 10 -26 -13 -17 -13 -22 2 -38 27 -30 53 -21 155
50 18 13 4 -4 -31 -37 -35 -34 -61 -61 -57 -61 21 0 69 35 109 80 26 28 51 49
57 45 15 -9 13 -125 -2 -129 -7 -2 -35 -11 -63 -20 -27 -9 -89 -19 -138 -21
-48 -3 -91 -6 -95 -6 -4 -1 -22 -1 -39 0 -36 1 -28 -8 -139 171 -170 276 -492
690 -667 858 -212 202 -476 351 -823 462 -120 38 -356 79 -505 87 -101 5 -117
4 -122 -10z m2618 -1108 c-7 -11 -65 -12 -65 -1 0 4 16 8 35 9 20 1 33 -3 30
-8z m981 -228 c1 -9 4 -25 9 -36 4 -11 -2 -5 -14 13 -25 38 -25 39 -8 39 7 0
13 -7 13 -16z m-116 -238 l-1 -38 -15 28 c-15 27 -12 47 7 47 5 0 9 -17 9 -37z
m17 -113 c9 0 -1 -21 -28 -57 -23 -32 -80 -116 -128 -188 -85 -129 -86 -130
-89 -93 -2 20 2 61 8 90 6 29 14 68 17 86 4 26 9 32 22 26 41 -17 52 -15 79
11 l27 27 -28 22 c-15 12 -27 27 -27 34 0 19 18 14 25 -7 10 -34 31 -31 44 5
7 19 17 34 23 34 5 0 7 8 4 17 -10 25 17 37 28 13 5 -11 15 -20 23 -20z m-707
-80 c0 -5 7 -7 15 -4 16 7 31 -36 21 -61 -3 -9 -2 -13 4 -10 14 9 12 -19 -2
-33 -9 -9 -9 -12 0 -12 6 0 16 8 21 18 9 15 10 15 11 1 1 -69 -93 -187 -170
-214 -58 -21 -228 -21 -236 0 -8 21 52 89 114 127 101 63 137 94 172 146 32
49 50 64 50 42z m-305 -1525 c0 -122 -2 -133 -28 -187 -26 -52 -116 -173 -123
-165 -2 2 5 25 15 53 10 27 40 143 66 257 56 243 69 250 70 42z m-618 -4697
c-3 -8 -6 -5 -6 6 -1 11 2 17 5 13 3 -3 4 -12 1 -19z"/>
<path d="M6318 7331 c-37 -10 -71 -21 -75 -25 -5 -5 1 -6 12 -3 11 3 49 13 85
22 64 16 87 26 59 24 -8 0 -44 -9 -81 -18z"/>
<path d="M6268 7283 c12 -2 30 -2 40 0 9 3 -1 5 -23 4 -22 0 -30 -2 -17 -4z"/>
<path d="M6068 7257 c-27 -11 -47 -21 -44 -25 3 -3 16 0 29 6 12 6 60 18 107
26 l85 15 -63 -2 c-35 -1 -86 -10 -114 -20z"/>
<path d="M6090 7194 c-21 -8 -27 -13 -15 -13 11 0 36 7 55 14 21 8 27 13 15
13 -11 0 -36 -6 -55 -14z"/>
<path d="M6109 7083 c-13 -16 -12 -17 4 -4 9 7 17 15 17 17 0 8 -8 3 -21 -13z"/>
<path d="M6178 6803 c7 -3 16 -2 19 1 4 3 -2 6 -13 5 -11 0 -14 -3 -6 -6z"/>
<path d="M6238 6803 c7 -3 16 -2 19 1 4 3 -2 6 -13 5 -11 0 -14 -3 -6 -6z"/>
</g>
</svg>
