<?xml version="1.0" standalone="no"?>
<!DOCTYPE svg PUBLIC "-//W3C//DTD SVG 20010904//EN"
 "http://www.w3.org/TR/2001/REC-SVG-20010904/DTD/svg10.dtd">
<svg version="1.0" xmlns="http://www.w3.org/2000/svg"
 width="1280.000000pt" height="1253.000000pt" viewBox="0 0 1280.000000 1253.000000"
 preserveAspectRatio="xMidYMid meet">
<metadata>
Created by potrace 1.15, written by Peter Selinger 2001-2017
</metadata>
<g transform="translate(0.000000,1253.000000) scale(0.100000,-0.100000)"
fill="#673ab7" stroke="none">
<path d="M9265 12518 c-77 -5 -162 -15 -190 -23 -27 -8 -84 -19 -125 -25 -96
-15 -209 -37 -282 -56 -60 -15 -291 -92 -343 -114 -45 -19 -84 -35 -150 -60
-33 -13 -71 -31 -85 -40 -14 -9 -66 -37 -117 -63 -50 -25 -141 -77 -203 -114
-62 -37 -138 -84 -170 -103 -32 -19 -77 -51 -101 -70 -24 -19 -64 -48 -88 -64
-60 -37 -203 -166 -381 -340 -80 -79 -174 -169 -210 -202 -117 -106 -184 -197
-269 -366 -13 -27 -27 -48 -31 -48 -11 0 -71 69 -110 125 -81 120 -193 245
-387 436 -115 112 -231 220 -257 239 -26 19 -64 49 -84 66 -21 17 -73 55 -117
83 -44 29 -89 60 -100 70 -61 54 -411 240 -610 324 -90 38 -515 172 -635 201
-58 13 -149 29 -203 35 -54 6 -117 15 -140 20 -23 5 -100 17 -172 27 -156 20
-634 24 -760 6 -44 -6 -117 -15 -161 -21 -45 -5 -182 -33 -305 -61 -220 -51
-420 -120 -563 -194 -27 -14 -57 -26 -66 -26 -9 0 -75 -30 -146 -67 -113 -58
-196 -109 -409 -253 -57 -38 -264 -219 -333 -290 -38 -39 -121 -132 -211 -235
-170 -196 -319 -436 -402 -648 -11 -29 -31 -70 -44 -92 -13 -22 -48 -101 -79
-175 -31 -74 -63 -148 -70 -165 -27 -61 -86 -304 -100 -415 -39 -300 -47 -395
-47 -620 -1 -257 10 -387 46 -555 61 -280 81 -354 160 -570 10 -29 75 -194 91
-235 8 -19 22 -48 31 -65 9 -16 47 -89 84 -161 36 -72 85 -162 107 -201 22
-40 43 -81 46 -91 10 -29 95 -172 173 -290 164 -247 184 -278 193 -300 5 -12
50 -74 100 -138 49 -63 95 -125 102 -137 6 -12 45 -64 87 -116 42 -52 83 -105
91 -117 8 -12 56 -73 107 -135 l92 -113 -41 -21 c-41 -21 -42 -21 -147 -3 -58
10 -176 22 -261 27 -85 5 -180 15 -210 23 -30 9 -77 21 -105 27 -27 7 -89 34
-136 61 -48 28 -91 50 -97 50 -6 0 -17 -7 -26 -15 -12 -12 -13 -22 -6 -41 6
-14 10 -41 10 -59 0 -28 7 -40 37 -62 20 -15 56 -46 80 -67 44 -39 44 -40 41
-100 l-3 -60 -44 -13 c-65 -19 -194 -35 -284 -37 -75 -1 -80 -2 -93 -29 -13
-23 -13 -31 1 -56 20 -39 56 -67 113 -85 50 -17 197 -36 274 -36 40 0 50 -4
67 -29 12 -16 21 -34 21 -40 0 -15 -120 -83 -233 -132 -111 -48 -128 -71 -87
-114 41 -44 81 -56 162 -49 125 10 179 24 292 76 108 50 111 50 190 46 94 -5
163 -34 170 -71 2 -12 9 -52 14 -90 6 -37 19 -84 30 -105 22 -44 126 -121 163
-122 33 0 36 18 23 162 -7 81 16 159 82 283 23 44 52 115 63 158 10 43 21 80
23 81 2 1 30 19 63 39 l59 37 152 -148 c144 -139 540 -508 613 -569 28 -24 32
-33 26 -54 -12 -37 -404 -422 -541 -531 -131 -104 -245 -178 -274 -178 -18 0
-50 -35 -50 -54 0 -5 83 -93 183 -195 184 -186 274 -289 378 -431 78 -108 93
-130 113 -177 17 -39 18 -46 3 -110 -16 -69 -50 -154 -84 -205 -17 -27 -17
-28 7 -53 13 -14 60 -42 104 -63 131 -63 279 -129 304 -137 12 -3 22 -11 22
-17 0 -18 -79 0 -165 38 -44 19 -115 48 -157 65 -43 17 -85 40 -93 52 -8 11
-17 18 -21 14 -4 -3 -15 -2 -25 4 -28 15 -54 -4 -79 -56 -31 -64 -22 -94 43
-136 28 -18 78 -43 112 -54 90 -32 201 -91 244 -130 27 -25 44 -33 57 -29 32
11 52 34 47 52 -2 10 10 38 26 62 17 25 31 53 31 62 0 11 19 27 49 43 45 22
50 28 56 67 3 24 10 52 14 63 5 11 23 65 41 120 43 130 64 171 92 179 13 3
105 6 204 6 136 0 192 -4 224 -15 49 -17 64 -10 75 33 8 35 62 147 94 195 13
21 44 49 67 63 36 21 46 23 65 14 19 -11 21 -18 16 -69 -7 -68 -77 -244 -112
-279 -33 -33 -32 -47 8 -62 40 -15 186 -78 210 -91 9 -5 41 -18 70 -29 29 -11
66 -33 81 -49 29 -30 29 -30 12 -71 -18 -45 -21 -96 -6 -105 6 -3 10 -15 10
-26 0 -11 10 -33 22 -49 17 -23 19 -33 10 -42 -15 -15 -15 -56 -1 -116 18 -73
21 -75 113 -67 45 4 110 11 146 17 173 26 265 34 282 24 12 -7 21 -7 28 0 11
11 29 85 37 153 3 25 14 57 25 72 16 21 18 31 9 47 -17 33 -13 142 7 182 23
47 122 115 154 107 13 -4 58 -37 100 -74 69 -62 127 -107 220 -171 18 -12 89
-64 158 -115 132 -98 337 -242 434 -304 32 -21 94 -62 137 -90 44 -29 94 -59
111 -66 18 -8 40 -22 48 -32 8 -9 37 -28 65 -41 27 -13 75 -39 105 -58 30 -19
71 -38 92 -41 20 -4 54 -22 78 -42 l42 -36 71 38 c40 21 79 44 88 52 9 8 32
18 50 23 32 9 165 82 234 128 17 11 66 42 110 68 44 26 123 75 175 109 52 34
147 94 211 132 64 38 139 89 168 111 29 23 57 42 62 42 5 0 9 -19 9 -43 l0
-43 73 -17 c91 -22 219 -37 266 -31 113 14 182 29 225 50 27 13 51 22 53 21
11 -12 21 -111 13 -127 -8 -14 -4 -25 14 -47 20 -23 37 -31 95 -41 139 -24
311 -15 476 24 33 8 94 22 135 31 58 13 80 23 98 44 21 26 22 30 8 51 -39 63
-90 373 -105 648 -1 8 -2 28 -4 45 l-2 30 80 11 c44 7 139 20 210 29 145 19
160 27 151 85 -3 19 -10 100 -16 180 -6 80 -15 178 -20 218 -19 144 -17 153
47 212 31 29 67 57 80 63 13 6 23 13 23 17 0 6 164 154 281 252 l66 56 36 -74
c21 -41 37 -79 37 -85 0 -6 11 -34 25 -64 24 -50 25 -57 15 -122 -18 -114 -29
-154 -67 -246 -22 -55 -32 -92 -26 -98 17 -17 119 -22 134 -6 28 29 130 154
176 217 62 84 123 124 216 144 186 39 351 69 445 82 130 17 217 33 248 45 37
13 74 58 74 89 0 34 -18 49 -102 88 -51 24 -69 38 -74 57 -12 48 -43 62 -120
54 -38 -4 -109 -16 -157 -26 -48 -11 -90 -16 -93 -11 -5 7 23 37 76 83 8 7 34
22 58 34 51 26 54 50 13 92 -36 35 -43 35 -129 5 -70 -24 -308 -166 -369 -219
-22 -19 -22 -19 -58 3 -38 24 -155 153 -155 172 0 6 71 83 158 172 159 163
262 277 484 531 68 77 168 190 223 250 55 61 125 139 155 175 30 36 79 91 107
123 29 32 101 122 161 200 59 78 146 191 192 250 86 109 103 132 162 220 18
27 47 65 64 85 16 20 47 62 67 92 20 30 59 87 86 125 27 39 76 111 108 160 31
50 87 133 123 185 37 52 83 129 104 170 49 95 94 178 115 210 25 37 39 70 51
118 7 25 20 48 35 58 29 19 41 50 26 68 -9 11 -3 31 27 87 21 41 62 148 91
239 28 91 63 199 77 240 13 41 36 122 50 180 29 122 41 172 61 255 41 173 63
550 44 780 -12 145 -35 308 -52 360 -9 30 -40 165 -60 260 -6 27 -16 61 -24
75 -7 14 -20 62 -29 107 -9 45 -30 113 -46 152 -17 38 -30 75 -30 81 0 13
-124 268 -155 320 -12 19 -29 54 -38 77 -9 23 -31 65 -50 95 -18 29 -37 60
-40 68 -12 25 -175 263 -221 322 -12 15 -37 48 -56 74 -55 75 -137 160 -245
253 -134 116 -294 241 -310 241 -4 0 -34 20 -68 43 -34 24 -97 61 -140 82 -42
21 -85 47 -94 57 -9 10 -22 18 -30 18 -8 0 -56 20 -106 44 -215 103 -464 192
-652 232 -82 17 -306 52 -417 64 -125 14 -512 19 -663 8z m640 -89 c418 -32
732 -123 1150 -331 93 -47 301 -168 335 -195 8 -7 52 -39 98 -71 102 -73 257
-214 278 -253 8 -16 34 -47 59 -70 45 -42 195 -221 195 -234 0 -4 18 -29 41
-56 22 -27 76 -108 119 -181 44 -73 93 -155 110 -183 52 -86 170 -335 224
-470 78 -194 94 -250 166 -590 63 -297 71 -661 20 -965 -5 -30 -17 -100 -26
-155 -21 -132 -58 -280 -96 -385 -16 -47 -37 -107 -45 -135 -9 -27 -22 -55
-29 -63 -8 -7 -14 -23 -14 -35 0 -12 -11 -46 -25 -75 -14 -30 -25 -59 -25 -66
0 -7 -5 -17 -11 -23 -12 -12 -59 -122 -59 -138 0 -6 -21 -53 -47 -105 -26 -52
-48 -99 -48 -105 -2 -16 -64 -122 -80 -135 -8 -7 -17 -28 -21 -49 -4 -20 -12
-43 -19 -51 -11 -13 -65 -106 -154 -263 -13 -23 -34 -56 -47 -74 -13 -17 -24
-34 -24 -36 0 -9 -68 -117 -109 -174 -42 -58 -54 -76 -210 -305 -129 -189
-334 -449 -586 -743 -156 -182 -145 -170 -212 -245 -32 -36 -76 -85 -97 -110
-174 -204 -745 -788 -755 -773 -3 5 -34 47 -67 94 -50 68 -174 293 -174 314 0
3 9 5 20 5 11 0 20 4 20 9 0 6 11 22 25 37 23 24 23 28 10 54 -8 15 -21 30
-30 33 -20 8 -19 37 1 37 9 0 47 15 85 33 98 46 95 63 -16 118 -47 23 -85 47
-85 54 0 6 20 31 45 55 l45 44 -29 31 c-46 48 -65 133 -58 263 6 122 25 185
87 281 22 34 40 68 40 75 0 13 -74 69 -185 143 -22 14 -89 51 -150 82 -60 31
-121 64 -136 74 -14 9 -39 20 -56 23 -27 5 -34 2 -49 -22 -10 -16 -51 -60 -90
-99 -39 -38 -88 -90 -109 -115 l-38 -45 7 34 c3 19 18 49 32 68 33 43 25 66
-30 87 -25 10 -50 24 -57 32 -6 8 -28 22 -47 31 -34 16 -36 16 -46 -1 -6 -10
-23 -34 -38 -53 -15 -19 -32 -51 -39 -71 -6 -20 -16 -42 -20 -48 -5 -6 -16
-69 -24 -140 -9 -71 -21 -172 -27 -224 -6 -54 -12 -254 -12 -464 l-1 -369 23
-14 c17 -12 22 -25 22 -60 0 -107 -45 -190 -125 -232 -49 -26 -50 -28 -50 -71
0 -27 -7 -55 -18 -70 -40 -57 -155 -163 -199 -183 -27 -12 -48 -28 -48 -35 0
-21 -91 -105 -150 -138 -58 -33 -82 -40 -169 -55 -51 -8 -72 -20 -179 -103
-20 -16 -56 -37 -79 -47 -39 -18 -46 -18 -149 -3 -127 19 -144 24 -192 65 -35
29 -41 30 -139 32 -93 2 -104 4 -128 27 -36 33 -50 63 -64 132 -12 58 -11 57
-110 139 -22 18 -23 25 -19 99 4 66 9 86 33 120 26 38 27 41 11 59 -15 17 -16
28 -8 88 17 123 95 230 230 317 38 25 73 51 78 58 6 7 11 35 12 62 2 57 29 99
93 143 22 15 49 35 60 43 12 9 29 49 44 105 14 50 38 122 54 160 17 39 53 129
81 200 68 171 184 386 269 496 29 37 44 80 32 92 -5 5 -39 18 -76 28 -97 26
-110 38 -135 116 -29 92 -43 106 -95 97 -22 -3 -52 -13 -68 -20 -27 -14 -182
-14 -205 0 -16 10 -59 -31 -82 -78 -12 -25 -33 -61 -48 -80 -15 -19 -52 -67
-82 -107 -30 -39 -72 -86 -93 -104 -37 -32 -37 -32 -24 -71 8 -21 19 -70 26
-109 6 -38 19 -98 28 -133 11 -46 12 -66 4 -76 -18 -21 -195 -96 -246 -102
-53 -8 -59 -14 -50 -54 11 -52 57 -85 135 -99 39 -7 80 -21 92 -31 l22 -18
-38 -46 c-48 -59 -142 -153 -232 -232 -75 -66 -265 -194 -287 -194 -8 0 -26
-9 -40 -20 -21 -17 -114 -63 -232 -115 -72 -32 -121 -46 -156 -47 -32 0 -44 7
-81 44 -24 25 -55 65 -70 90 -51 84 -172 124 -227 74 -25 -23 -59 -20 -97 9
-29 22 -32 29 -28 67 10 95 28 184 41 206 8 14 61 46 126 77 62 30 128 68 147
85 l35 30 -96 93 -96 92 -7 60 c-7 64 6 215 24 277 11 37 83 138 99 138 24 0
20 37 -8 76 -17 23 -47 74 -67 113 -20 39 -49 82 -66 96 -30 25 -31 25 -50 8
-11 -10 -41 -45 -66 -77 -25 -33 -47 -55 -49 -49 -2 6 10 41 26 77 17 36 31
69 31 74 0 22 -45 52 -100 68 -47 13 -70 27 -104 62 -59 61 -63 58 -141 -123
-25 -59 -125 -207 -137 -203 -11 4 -69 199 -84 282 -9 48 -10 49 -54 60 -25 7
-62 24 -81 39 -42 32 -56 34 -64 8 -11 -35 -326 -118 -427 -112 -22 1 -23 23
-4 59 7 15 25 63 39 107 55 170 85 236 165 362 26 40 65 101 87 135 47 73 68
81 114 42 31 -26 58 -74 173 -302 49 -100 52 -104 79 -98 16 3 46 17 68 31 54
36 120 54 224 62 101 7 102 6 65 -79 l-22 -51 23 -19 24 -18 46 48 c25 26 68
60 95 76 45 27 54 28 135 24 116 -6 252 -59 442 -170 164 -97 244 -127 344
-130 58 -2 80 3 127 25 31 15 61 27 66 27 5 0 36 18 70 40 42 27 73 57 99 97
50 76 52 80 89 119 18 19 34 40 37 47 5 15 41 33 80 41 43 10 67 58 67 136 0
36 -4 80 -9 97 -10 33 8 116 29 137 6 6 10 35 10 66 0 61 -16 88 -65 113 -16
8 -41 27 -54 40 l-23 26 22 48 c12 26 26 56 31 65 14 27 11 66 -8 105 -13 28
-30 41 -77 63 -105 47 -132 88 -91 140 18 23 85 141 85 149 0 18 38 39 79 44
65 8 164 61 232 125 l61 56 39 -46 c45 -53 109 -88 162 -88 46 0 54 -15 37
-75 -10 -36 -9 -63 4 -154 19 -129 21 -237 4 -247 -6 -4 -22 7 -38 26 -21 25
-31 31 -48 26 -26 -9 -26 -10 -6 -69 15 -44 47 -81 104 -118 l25 -17 -34 -18
c-99 -56 -231 -141 -264 -173 -21 -20 -54 -60 -74 -89 -34 -52 -35 -55 -28
-125 10 -101 34 -207 56 -243 36 -59 284 -290 358 -333 38 -23 82 -52 98 -65
15 -13 39 -27 53 -31 14 -4 32 -13 40 -20 45 -38 145 -75 320 -117 54 -13 55
-14 55 -48 0 -33 -3 -36 -42 -45 -38 -9 -45 -16 -70 -65 -14 -30 -38 -73 -53
-95 -45 -68 -98 -187 -116 -260 -9 -38 -22 -81 -29 -95 -22 -44 -28 -119 -12
-144 13 -19 30 -24 113 -35 208 -26 370 -55 385 -68 17 -14 67 -17 85 -5 7 4
21 38 33 75 52 168 182 444 230 487 36 32 73 95 69 117 -3 18 -36 31 -117 43
-67 11 -86 28 -85 80 2 50 27 90 58 90 34 0 186 45 291 87 115 45 228 101 334
163 46 28 89 50 96 50 6 0 26 -37 45 -82 40 -100 119 -188 167 -188 23 0 42
-14 91 -69 71 -79 167 -155 232 -183 25 -10 61 -27 80 -37 94 -48 129 -30 72
38 -28 34 -72 124 -72 148 0 11 48 -2 105 -27 113 -51 243 -90 339 -102 80
-10 110 -8 246 11 85 12 184 30 220 41 36 10 82 22 103 26 34 6 38 9 35 33 -3
23 -8 26 -43 29 -143 10 -365 50 -365 66 0 2 26 12 58 21 240 71 401 176 527
345 35 47 71 105 81 130 9 25 26 57 36 72 22 32 44 127 35 151 -9 23 -44 21
-52 -3 -16 -51 -192 -179 -265 -192 -97 -18 -137 -20 -160 -8 -22 12 -22 12
26 62 27 28 81 75 119 106 107 86 290 268 359 357 64 82 161 262 214 395 35
89 82 260 82 300 0 16 4 31 9 35 15 9 30 -60 37 -172 7 -105 16 -128 50 -121
13 2 21 22 31 73 20 96 66 212 158 395 87 171 84 162 92 403 6 170 -3 250 -44
432 -29 131 -50 195 -97 295 -103 222 -192 346 -370 512 -137 129 -233 195
-426 292 -168 85 -210 100 -340 121 -238 38 -504 1 -652 -92 -21 -13 -41 -23
-45 -23 -4 0 -45 -37 -90 -82 -45 -45 -85 -79 -88 -76 -5 5 28 72 96 194 20
36 21 44 10 58 -21 26 -51 19 -135 -30 -180 -105 -275 -258 -306 -494 -10 -74
-23 -145 -35 -187 -3 -9 -29 -5 -93 13 -104 28 -212 49 -370 70 l-113 15 -67
-25 c-37 -14 -83 -29 -102 -32 -19 -4 -44 -12 -55 -18 -11 -7 -47 -18 -80 -25
-121 -26 -331 -97 -485 -163 -223 -97 -255 -110 -302 -124 -25 -8 -55 -24 -66
-37 -11 -12 -42 -47 -69 -77 -27 -30 -66 -75 -87 -100 -21 -25 -45 -54 -55
-65 -9 -11 -41 -55 -71 -99 -69 -99 -119 -156 -135 -156 -8 0 -16 15 -20 33
-11 54 -41 148 -75 232 -49 125 -205 424 -255 490 -72 95 -273 303 -318 328
-307 173 -454 246 -597 297 -279 101 -477 157 -660 189 -259 44 -246 43 -329
25 -74 -16 -163 -54 -176 -73 -3 -5 -31 -24 -61 -42 -31 -17 -83 -55 -116 -83
-33 -28 -74 -61 -91 -74 l-32 -22 -17 52 c-10 29 -23 72 -28 96 -6 24 -19 52
-29 63 -10 11 -36 45 -57 77 -21 31 -66 87 -98 125 l-60 67 -82 0 c-48 0 -99
6 -125 16 -44 15 -104 13 -155 -7 -38 -14 -20 -35 82 -95 59 -36 101 -68 114
-89 22 -36 94 -223 104 -270 11 -53 2 -56 -119 -40 -120 16 -214 19 -231 7
-13 -9 -182 -215 -214 -262 -13 -19 -44 -57 -68 -85 -68 -76 -74 -88 -66 -130
7 -41 36 -59 69 -42 11 5 47 31 80 57 33 26 74 54 90 63 41 22 236 105 255
109 21 4 100 -23 100 -34 0 -12 -104 -149 -194 -257 -39 -46 -87 -105 -106
-131 -19 -25 -45 -59 -58 -76 -12 -16 -47 -65 -77 -110 -30 -45 -62 -87 -71
-95 -13 -11 -15 -25 -10 -84 4 -38 11 -135 16 -215 15 -251 67 -510 147 -740
31 -89 43 -105 92 -121 98 -32 297 -199 380 -320 34 -50 44 -74 56 -147 8 -48
13 -96 12 -107 -1 -14 8 -25 32 -37 51 -25 57 -34 41 -62 -10 -20 -16 -23 -30
-14 -28 18 -47 3 -71 -54 -54 -127 -163 -318 -181 -318 -5 0 -8 8 -8 18 0 36
-17 40 -163 35 -189 -7 -346 14 -436 58 -57 28 -64 30 -79 15 -13 -12 -13 -20
-4 -41 7 -14 12 -44 12 -66 0 -22 7 -54 16 -71 12 -23 13 -29 2 -26 -7 2 -27
40 -45 83 -17 43 -38 86 -47 97 -19 22 -49 23 -67 2 -19 -23 -56 -40 -160 -73
-145 -47 -254 -69 -467 -97 -185 -24 -252 -26 -329 -7 -40 9 -34 -37 38 -327
47 -188 50 -167 -23 -235 -91 -86 -183 -156 -343 -260 -214 -139 -470 -280
-499 -273 -28 6 -222 253 -316 403 -36 57 -84 126 -106 152 -22 26 -62 80 -89
118 -27 39 -88 122 -134 185 -96 130 -169 242 -267 410 -37 63 -79 135 -95
160 -38 62 -103 195 -122 250 -9 25 -37 92 -62 150 -136 309 -192 480 -244
740 -69 345 -79 736 -31 1245 9 101 20 146 65 280 30 88 68 194 85 235 17 41
49 118 70 170 37 91 121 261 198 400 143 261 436 572 786 836 145 108 181 133
208 139 15 4 31 11 34 17 3 5 25 18 48 29 22 11 88 45 146 76 193 102 478 214
660 258 58 14 141 34 185 45 154 38 262 50 543 61 208 8 303 8 358 0 41 -6 98
-11 127 -11 29 0 116 -11 193 -25 76 -14 177 -30 224 -35 100 -12 294 -66 331
-91 15 -10 75 -34 135 -53 145 -45 265 -96 464 -196 362 -181 499 -267 720
-451 269 -225 597 -572 709 -751 55 -87 114 -102 133 -33 4 15 18 40 31 54 23
26 34 40 84 116 14 22 90 114 168 205 133 154 398 411 484 469 20 14 79 59
131 101 194 154 402 291 574 377 39 19 82 43 96 52 99 67 459 197 750 271 199
51 631 67 1005 39z m500 -3130 c31 -42 54 -89 74 -152 31 -98 57 -258 49 -301
-6 -32 7 -43 51 -48 30 -2 38 -9 55 -45 26 -52 50 -55 139 -16 58 25 72 27
212 27 127 1 155 -2 183 -17 73 -40 78 -127 20 -392 -34 -156 -61 -227 -124
-326 -13 -21 -21 -45 -18 -57 13 -49 -86 -169 -129 -156 -101 30 -203 129
-265 255 -41 85 -68 193 -58 235 8 32 -7 38 -96 35 -65 -2 -84 2 -116 20 -38
22 -42 23 -148 11 -60 -7 -125 -13 -144 -14 -49 -2 -151 28 -173 51 -36 36
-41 219 -8 303 27 71 141 287 193 368 19 30 45 74 57 98 26 52 86 113 149 153
25 16 47 29 49 29 2 0 23 -27 48 -61z m-5681 -2815 c22 -22 20 -41 -9 -70 -17
-17 -34 -24 -53 -22 -40 5 -41 39 -1 77 37 36 42 37 63 15z m3646 -58 c54 -3
26 -77 -35 -92 -49 -12 -72 37 -39 84 11 16 22 21 33 17 9 -4 27 -8 41 -9z
m-4990 -77 c0 -13 -45 -132 -68 -179 -26 -53 -190 -213 -244 -239 -38 -18 -58
-21 -100 -17 l-53 6 -27 -58 c-42 -90 -40 -99 49 -178 49 -44 83 -84 95 -112
l19 -43 -31 -48 c-50 -79 -76 -102 -104 -95 -13 3 -34 1 -45 -6 -23 -12 -105
-131 -116 -170 -8 -28 -114 -202 -145 -238 -23 -28 -16 -31 -145 72 -121 98
-332 301 -507 490 l-128 138 177 119 c98 66 212 143 253 172 41 28 138 94 215
145 77 50 159 106 183 123 l42 30 58 -26 c109 -50 159 -86 183 -132 40 -79 45
-77 171 50 148 150 268 238 268 196z m4885 -254 c45 -44 25 -98 -41 -111 -26
-5 -35 -1 -57 26 -32 38 -34 63 -7 90 28 28 75 26 105 -5z m-3781 -201 c17
-43 -13 -94 -54 -94 -29 0 -60 34 -53 60 10 40 94 67 107 34z m781 -33 c-3
-12 -10 -21 -15 -21 -5 0 -4 11 2 25 13 29 23 26 13 -4z m2095 -51 c-35 -29
-51 -34 -52 -15 -1 12 74 56 82 49 3 -3 -11 -19 -30 -34z m-2135 -32 c-4 -18
-28 -78 -54 -133 -107 -229 -106 -225 -95 -243 9 -13 29 -18 93 -20 l82 -3 -7
-132 c-7 -149 0 -191 47 -268 17 -27 28 -53 24 -59 -3 -6 -21 -17 -38 -26 -77
-39 -129 -122 -130 -205 -1 -71 28 -102 126 -133 13 -4 17 -17 17 -53 0 -26 6
-59 13 -72 27 -53 136 -80 184 -46 21 15 25 14 64 -15 34 -24 52 -30 93 -30
56 0 74 9 143 72 33 29 51 38 78 38 55 0 141 54 181 114 18 28 36 67 40 86 4
19 14 47 22 62 17 29 87 68 121 68 11 0 22 4 26 9 3 5 22 15 43 21 43 14 162
65 280 121 45 21 84 39 86 39 8 0 199 111 244 141 110 75 204 150 307 246 101
94 139 116 102 60 -27 -42 -155 -172 -212 -217 -32 -25 -77 -62 -101 -82 -24
-20 -70 -54 -101 -74 -65 -42 -120 -85 -205 -157 -31 -27 -78 -63 -106 -80
-91 -58 -146 -101 -222 -173 -41 -39 -86 -79 -100 -90 -24 -19 -216 -217 -293
-303 -30 -33 -37 -48 -33 -67 4 -13 11 -24 17 -24 5 0 40 -28 77 -63 150 -140
280 -230 557 -383 83 -45 172 -95 200 -111 27 -15 129 -68 225 -118 l175 -90
31 -92 c17 -50 40 -109 51 -130 45 -86 88 -159 103 -175 19 -21 123 -227 141
-280 10 -30 10 -40 -1 -52 -14 -17 -169 -124 -275 -191 -35 -22 -90 -58 -121
-80 -32 -22 -93 -59 -137 -82 -44 -24 -96 -55 -116 -70 -42 -33 -119 -83 -127
-83 -3 0 -63 -32 -132 -71 -70 -39 -143 -80 -163 -91 l-35 -20 -95 43 c-51 23
-124 62 -162 86 -37 23 -70 43 -73 43 -14 0 -383 241 -513 335 -165 118 -301
215 -381 270 -177 121 -323 247 -304 263 5 5 52 28 104 51 52 24 113 51 135
62 50 23 145 49 178 49 30 0 57 33 50 60 -3 11 -31 49 -63 85 -31 35 -71 91
-89 122 -17 32 -40 69 -51 83 -25 33 -79 380 -130 845 -6 55 -15 116 -20 135
-16 63 -39 233 -46 337 -5 82 -10 105 -25 119 -27 24 -24 30 24 53 42 20 45
21 89 4 58 -21 75 -14 83 34 3 21 11 69 17 107 13 76 8 93 -36 114 -15 8 -41
32 -57 55 -27 36 -30 48 -26 87 7 56 52 166 108 262 43 74 87 138 96 138 3 0
1 -15 -2 -32z m4235 -320 c19 -40 42 -85 52 -100 22 -32 23 -48 3 -48 -8 0
-15 6 -15 14 0 8 -6 16 -14 19 -37 14 -101 187 -69 187 5 0 24 -33 43 -72z
m-6110 -100 c54 -16 62 -27 55 -67 -9 -48 -35 -91 -60 -97 -28 -7 -233 79
-249 104 -3 5 9 36 25 69 l30 61 82 -29 c45 -17 98 -35 117 -41z m901 10 c11
-11 19 -29 19 -39 0 -24 -41 -51 -82 -53 -30 -1 -33 2 -36 30 -2 25 3 37 28
58 38 32 47 32 71 4z m5092 -107 c84 -85 91 -108 29 -96 -74 14 -162 82 -162
125 0 16 29 50 43 50 6 0 46 -36 90 -79z m-5603 -90 c123 -40 136 -51 106 -96
-23 -34 -61 -32 -189 9 -109 36 -147 52 -147 64 0 4 9 22 20 40 19 30 23 32
58 26 20 -3 89 -23 152 -43z m487 -63 c57 -21 71 -34 54 -51 -7 -7 -33 -6 -92
7 -88 19 -98 16 -99 -29 0 -11 -3 -30 -6 -42 -7 -25 24 -45 106 -69 51 -15 79
-37 60 -49 -12 -7 -196 20 -235 35 -21 8 -25 16 -25 53 0 55 23 133 47 159 15
17 25 19 78 13 33 -4 84 -16 112 -27z m4693 -23 c29 -21 46 -25 109 -26 95 -2
137 -11 133 -29 -2 -7 -5 -51 -8 -96 -4 -81 -3 -83 27 -113 17 -17 36 -31 43
-31 7 0 38 22 69 49 31 27 71 52 88 56 43 10 59 -8 209 -223 28 -39 53 -79 57
-88 3 -9 18 -29 32 -45 14 -16 42 -58 61 -94 l34 -65 -55 -53 c-92 -87 -197
-179 -228 -198 -16 -9 -30 -21 -32 -26 -2 -4 -24 -24 -49 -42 -25 -19 -62 -50
-82 -70 -21 -19 -41 -32 -44 -28 -4 3 -19 71 -35 149 -41 201 -87 379 -115
443 -8 17 -36 93 -65 170 -66 184 -131 318 -164 339 -14 9 -25 23 -25 31 0 19
0 19 40 -10z m-5700 -100 c-6 -8 -22 -17 -33 -21 -12 -4 -34 -15 -49 -25 -24
-18 -66 -28 -313 -79 -111 -23 -160 -17 -160 20 0 24 3 25 60 25 169 2 297 24
420 74 62 25 93 28 75 6z m1407 -6 c63 -11 63 -11 63 -44 0 -19 -4 -36 -9 -40
-5 -3 -43 6 -85 20 -41 14 -88 25 -104 25 -31 0 -58 22 -47 40 8 13 102 13
182 -1z m-20 -340 c77 -68 133 -106 193 -131 48 -20 69 -43 52 -60 -5 -5 -14
-2 -22 7 -7 8 -20 15 -30 15 -42 0 -222 113 -284 178 -24 26 -27 34 -16 46 16
20 31 12 107 -55z m3583 -1481 c0 -24 -23 -48 -44 -48 -8 0 -7 115 1 123 11
11 43 -45 43 -75z m13 -200 c9 -116 9 -186 -2 -192 -13 -8 -18 9 -37 135 -17
108 -17 112 1 125 10 8 22 14 25 14 4 0 10 -37 13 -82z m-3705 -374 c59 -16
12 -27 -183 -45 -60 -5 -140 -12 -176 -16 -41 -3 -74 -1 -85 5 -16 10 -14 11
16 12 19 0 103 11 185 24 161 25 207 29 243 20z"/>
<path d="M7758 5698 c-18 -6 -36 -26 -51 -57 -24 -47 -24 -47 -6 -101 20 -62
24 -116 9 -125 -5 -3 -22 1 -38 9 -52 27 -95 30 -122 7 -20 -16 -23 -23 -14
-38 13 -21 103 -59 160 -69 35 -5 41 -3 50 17 11 23 12 22 63 -29 29 -29 51
-56 49 -61 -2 -5 -38 -39 -82 -75 -43 -37 -103 -96 -133 -131 -31 -36 -58 -65
-62 -65 -14 0 -102 -142 -97 -156 7 -20 43 -18 60 4 8 9 45 55 83 102 99 123
303 301 303 265 0 -2 -8 -26 -19 -52 -30 -76 -68 -264 -91 -448 -12 -93 -25
-184 -30 -202 -6 -22 -4 -37 7 -52 17 -24 23 -26 47 -8 13 10 20 42 31 154 26
258 85 534 134 621 16 29 84 61 130 62 l34 0 -21 -23 c-25 -27 -28 -59 -8 -76
8 -7 44 -17 80 -22 80 -13 119 1 124 43 3 24 -1 28 -40 38 -125 32 -128 38
-35 64 136 39 285 113 355 176 l43 38 -23 56 c-27 65 -28 66 -159 37 -54 -12
-102 -30 -130 -49 -24 -16 -87 -51 -139 -77 -116 -57 -135 -67 -159 -89 -35
-32 -54 -17 -86 69 -17 44 -46 113 -65 153 -28 60 -41 76 -68 88 -39 16 -47
16 -84 2z m94 -173 c24 -24 59 -73 77 -108 48 -92 30 -111 -53 -56 -68 45 -96
91 -96 156 0 67 13 68 72 8z m619 -46 c8 -17 8 -24 -3 -34 -15 -15 -228 -85
-259 -85 -32 0 81 88 150 116 70 29 97 30 112 3z"/>
<path d="M7433 5317 c-34 -23 -42 -52 -23 -88 14 -26 32 -24 68 6 32 27 44 63
30 89 -12 22 -36 19 -75 -7z"/>
<path d="M8413 5178 c-25 -12 -30 -40 -10 -55 17 -14 111 -44 150 -49 18 -2
41 -6 53 -9 12 -4 29 1 43 12 l22 18 -20 27 c-22 28 -75 50 -126 53 -16 2 -43
5 -60 8 -16 4 -40 1 -52 -5z"/>
<path d="M7168 4983 c-66 -48 -66 -48 -73 -107 -9 -80 4 -94 62 -66 74 36 154
168 123 205 -20 24 -43 18 -112 -32z"/>
<path d="M8683 4966 c-37 -32 -69 -117 -53 -145 13 -26 17 -26 57 -1 41 25 66
105 47 154 -8 22 -18 20 -51 -8z"/>
<path d="M8426 4620 c-35 -53 -48 -88 -41 -111 14 -42 64 -14 118 67 40 61 35
84 -17 84 -28 0 -38 -7 -60 -40z"/>
<path d="M7095 4630 c-25 -27 -31 -122 -12 -175 8 -24 25 -46 41 -55 26 -14
28 -14 47 9 25 31 28 184 3 219 -19 28 -55 28 -79 2z"/>
<path d="M8137 4387 c-91 -49 -117 -82 -99 -121 14 -32 44 -34 92 -5 67 41
111 81 127 118 9 20 19 39 21 44 2 4 -11 7 -30 7 -20 0 -64 -17 -111 -43z"/>
<path d="M7210 4305 c-14 -17 -2 -65 21 -76 42 -21 98 -31 125 -22 59 20 36
70 -44 97 -57 20 -86 20 -102 1z"/>
<path d="M7565 4195 c-45 -16 -67 -41 -63 -70 5 -32 72 -45 174 -35 93 10 114
20 114 56 0 18 -7 25 -27 29 -16 3 -41 11 -58 17 -49 18 -97 19 -140 3z"/>
<path d="M1570 2551 c-36 -9 -102 -46 -122 -67 -9 -11 -29 -47 -44 -82 l-27
-62 18 -48 c24 -60 57 -91 134 -121 34 -13 60 -29 58 -35 -2 -5 -22 -20 -45
-32 -23 -12 -92 -66 -152 -119 -60 -53 -127 -106 -149 -118 -344 -192 -590
-393 -689 -564 -50 -85 -108 -245 -117 -323 -4 -30 -23 -89 -41 -131 -50 -112
-47 -130 33 -223 44 -51 84 -86 117 -103 91 -46 24 -53 -267 -28 -106 9 -180
20 -199 30 -19 9 -35 12 -41 6 -5 -5 -8 -96 -7 -202 0 -147 -3 -206 -14 -244
-9 -27 -12 -53 -8 -57 5 -5 82 -12 172 -16 215 -9 12225 -16 12358 -7 l102 8
0 106 c0 58 -3 150 -7 204 -6 94 -7 99 -34 112 -23 12 -161 15 -881 15 -469 1
-898 4 -953 8 -55 4 -148 5 -207 2 -123 -7 -200 0 -205 17 -2 6 19 37 47 68
109 120 166 241 157 330 -6 55 -32 117 -74 173 -22 29 -124 112 -138 112 -3 0
-24 9 -48 19 -137 62 -167 71 -167 50 0 -6 -48 -33 -107 -61 -62 -29 -136 -73
-173 -103 -70 -57 -239 -229 -306 -310 -40 -49 -42 -49 -92 -47 -54 2 -267 44
-330 65 -63 20 -54 60 53 247 84 146 284 340 350 340 11 0 28 9 38 20 16 19
15 21 -26 51 -67 50 -98 60 -143 47 -59 -16 -161 -70 -236 -125 -63 -46 -208
-178 -208 -190 0 -3 -20 -28 -45 -56 -25 -29 -45 -57 -45 -64 0 -6 -11 -24
-24 -40 -13 -15 -35 -50 -49 -78 -41 -80 -49 -88 -78 -76 -95 36 -225 218
-236 330 -6 54 -17 81 -33 81 -5 0 -31 -39 -59 -87 -48 -82 -50 -85 -56 -57
-16 74 -50 122 -78 111 -9 -3 -21 -39 -31 -93 -9 -48 -22 -95 -29 -103 -7 -9
-19 -34 -26 -56 -11 -36 -52 -95 -66 -95 -3 0 -5 7 -5 15 0 50 -125 255 -183
299 -117 90 -160 113 -282 150 -27 8 -76 24 -107 35 -32 12 -103 26 -158 32
l-101 11 -21 -27 c-12 -15 -37 -34 -55 -42 -38 -15 -53 -41 -32 -54 16 -10 86
-32 110 -35 82 -8 249 -72 332 -128 65 -42 172 -148 198 -196 11 -19 31 -50
44 -69 52 -71 30 -68 -120 17 -66 37 -133 74 -150 82 -16 8 -37 19 -45 26 -8
7 -81 35 -161 62 -195 67 -415 101 -553 84 -77 -10 -97 -17 -150 -51 -75 -50
-181 -172 -208 -243 -11 -29 -27 -82 -36 -117 -15 -63 -14 -66 7 -107 28 -51
51 -73 116 -109 28 -15 56 -32 63 -38 7 -6 30 -14 50 -18 20 -5 -109 -6 -288
-3 -351 5 -636 17 -645 26 -3 3 30 28 73 56 43 28 93 67 111 88 30 34 33 42
29 86 -3 26 -12 56 -20 66 -8 9 -20 46 -27 81 -14 73 -71 191 -128 267 -21 29
-82 101 -137 160 -86 94 -102 108 -127 106 -46 -5 -161 58 -274 150 -111 90
-140 116 -135 120 3 3 68 -6 145 -20 196 -34 177 -37 180 30 1 51 -1 59 -26
77 -20 15 -36 19 -62 14 -38 -6 -287 46 -287 59 0 5 9 8 20 8 36 0 108 41 135
76 14 19 38 60 52 91 25 53 25 60 15 126 -6 38 -18 77 -27 87 -54 60 -235 18
-397 -92 -50 -33 -63 -38 -95 -32 -24 3 -56 -1 -86 -11 -50 -17 -55 -16 -160
21 -20 8 -72 14 -115 14 -117 -1 -179 -37 -217 -126 -15 -37 -6 -101 25 -171
21 -49 17 -87 -15 -139 -14 -22 -22 -48 -75 -243 -36 -133 -44 -151 -69 -151
-24 0 -74 74 -97 142 -17 51 -16 87 2 314 8 105 -1 124 -60 124 -55 0 -72 -19
-81 -92 -6 -49 -15 -67 -59 -122 -66 -83 -132 -193 -141 -237 -4 -19 -13 -45
-20 -59 -11 -23 -26 -116 -41 -250 -7 -67 14 -175 61 -315 18 -55 41 -140 49
-190 9 -49 19 -100 21 -112 l5 -23 -917 0 c-505 0 -924 4 -932 9 -10 6 3 20
49 51 34 23 101 73 148 111 47 37 89 66 94 63 10 -6 -9 -44 -22 -44 -22 0 -10
-66 18 -98 l27 -33 75 36 c98 47 240 144 253 172 6 15 6 36 -2 67 -24 98 -14
132 70 238 57 73 73 109 103 229 44 178 31 323 -34 407 -28 35 -65 50 -89 35
-13 -9 -15 -27 -12 -114 4 -116 -9 -176 -61 -291 -29 -64 -58 -94 -44 -46 4
13 11 50 17 83 5 33 16 87 24 120 21 87 29 213 17 258 -12 42 -7 67 12 67 19
0 130 84 148 113 48 72 36 130 -45 215 -75 78 -113 100 -244 146 -56 19 -125
52 -155 72 -39 28 -66 39 -103 42 -40 3 -60 12 -97 43 -62 52 -173 115 -223
127 -58 14 -136 21 -165 13z m195 -185 c22 -8 52 -17 68 -20 15 -4 27 -10 27
-15 0 -10 -134 -81 -155 -81 -30 0 -145 43 -161 61 -15 17 -15 20 0 44 15 23
22 25 98 25 46 0 100 -6 123 -14z m574 -265 c84 -22 118 -49 127 -99 10 -54
-18 -72 -111 -72 l-72 0 -52 51 c-52 51 -58 68 -41 113 12 32 44 34 149 7z
m2771 -21 c0 -28 -34 -72 -73 -95 -45 -25 -130 -35 -142 -16 -8 14 74 81 125
102 51 20 90 24 90 9z m-3241 -27 c-8 -9 -39 -33 -70 -52 -31 -20 -78 -61
-105 -92 -27 -31 -65 -69 -84 -85 -48 -41 -132 -95 -138 -89 -8 8 111 136 184
198 91 77 181 137 206 137 18 0 19 -2 7 -17z m150 -45 c-1 -80 -162 -574 -199
-612 -21 -21 -104 -34 -114 -17 -10 15 28 95 104 221 86 142 126 226 134 283
4 26 13 62 20 80 7 18 16 40 19 50 9 25 37 21 36 -5z m2435 -52 c77 -17 81
-19 72 -42 -6 -15 -18 -16 -88 -11 -63 4 -85 10 -95 23 -14 20 -8 30 22 37 11
3 20 5 20 6 0 0 31 -5 69 -13z m246 -145 c0 -5 -7 -14 -15 -21 -8 -7 -15 -20
-15 -29 0 -9 -42 -92 -94 -186 -90 -163 -166 -271 -174 -247 -15 46 238 490
281 491 9 1 17 -3 17 -8z m5568 -853 c51 -51 67 -91 45 -110 -13 -11 -18 -10
-27 6 -6 10 -28 40 -49 67 -35 45 -43 79 -19 79 5 0 27 -19 50 -42z m-3560
-80 c-19 -29 -47 -72 -62 -95 -27 -44 -52 -55 -62 -28 -10 25 4 61 42 106 83
100 145 113 82 17z m1672 -331 c12 -26 21 -50 18 -52 -2 -2 -29 -1 -61 2 -55
6 -57 7 -50 32 3 14 17 49 31 76 l26 50 6 -30 c4 -16 17 -52 30 -78z m-536
-23 c15 -39 -37 -74 -111 -74 -37 0 -24 20 38 57 62 38 65 38 73 17z m-3606
-23 c29 -25 28 -33 -5 -29 -20 2 -29 9 -31 26 -4 27 6 28 36 3z m4796 -15 c48
-20 45 -36 -6 -36 -68 0 -88 9 -88 37 0 23 3 25 29 20 17 -4 46 -13 65 -21z"/>
<path d="M7606 2228 c-33 -52 35 -188 94 -188 10 0 31 5 46 12 24 11 28 10 53
-20 49 -59 86 -60 190 -8 38 20 57 24 64 17 15 -15 67 -14 117 4 55 19 70 19
70 -2 0 -35 48 -122 76 -136 31 -16 92 -8 150 19 34 16 36 16 58 -5 32 -30
114 -29 184 4 47 22 61 24 132 18 75 -6 83 -4 144 26 35 17 68 31 74 31 11 0
17 14 26 71 6 32 4 37 -16 43 -34 9 -35 8 -47 -24 -12 -35 -61 -60 -113 -59
-46 1 -67 11 -81 39 -8 15 -23 26 -38 28 -20 2 -31 -5 -52 -37 -30 -45 -66
-68 -112 -71 -49 -3 -52 -2 -70 36 -24 50 -41 53 -79 10 -26 -28 -41 -36 -68
-36 -63 0 -108 56 -108 135 0 22 -6 38 -14 41 -19 7 -86 -25 -86 -41 0 -12
-77 -28 -92 -19 -4 3 -8 13 -8 23 0 20 -19 41 -37 41 -7 0 -37 -25 -66 -56
-49 -52 -56 -56 -86 -49 -24 5 -40 19 -63 56 -16 27 -33 49 -38 49 -5 0 -21
-10 -37 -23 -15 -13 -36 -27 -46 -30 -26 -10 -55 25 -62 77 -6 36 -11 46 -26
46 -10 0 -25 -10 -33 -22z"/>
</g>
</svg>
