<?xml version="1.0" standalone="no"?>
<!DOCTYPE svg PUBLIC "-//W3C//DTD SVG 20010904//EN"
        "http://www.w3.org/TR/2001/REC-SVG-20010904/DTD/svg10.dtd">
<svg width="85pt" height="64pt" viewBox="0 0 250 262" version="1.1" xmlns="http://www.w3.org/2000/svg">
    <g transform="translate(51.000000, 42.000000)">
        <g id="kylin" transform="translate(10.756159, 30.865501)" fill="#ffffff">
            <polygon id="t1"
                     points="67.8956333 47.000493 65.5810094 55.509203 94.128037 78.1990962 87.5699361 47.000493"></polygon>
            <polygon id="t2" points="88.727248 47.4056697 94.8995783 77.3887428 104.158074 67.6645029"></polygon>
            <polygon id="t3" points="73.2937219 30.8744618 75.771141 33.8200962 68.2871905 44.7801249"></polygon>
            <polygon id="t4" points="73.2964223 29.5778965 76.3825874 32.4141331 86.4126242 6.48282663"></polygon>
            <polygon id="t5"
                     points="77.1541287 33.2244865 86.7983948 33.6296631 92.1991838 27.5520132 85.2553122 12.5604766"></polygon>
            <polygon id="t6"
                     points="76.2954033 34.3063081 86.3964218 34.7438989 88.1875549 45.7039277 68.8820488 45.7890148"></polygon>
            <polygon id="t7" points="90.2703306 0 85.6410829 11.3449466 89.1130187 13.3708299"></polygon>
            <polygon id="t8"
                     points="86.7983948 13.3708299 95.285349 17.4225966 100.686138 29.9830731 92.9707251 26.3364832"></polygon>
            <polygon id="t9"
                     points="93.7422664 27.5520132 88.3414774 33.6296631 97.2142022 34.4400164 101.84345 32.0089565"></polygon>
            <polygon id="t10" points="87.5699361 35.2503698 97.9857435 57.5350863 89.4987893 46.5953164"></polygon>
            <polygon id="t11" points="99.528826 59.155793 111.487716 61.5868529 104.543844 65.6386196"></polygon>
            <polygon id="t12" points="106.472698 66.0437962 111.873487 62.8023829 119.97467 74.1473295"></polygon>
            <polygon id="t13" points="116.888505 67.6645029 123.446606 74.5525062 122.675065 77.3887428"></polygon>
            <polygon id="t14" points="128.075854 76.1732128 122.675065 80.2249795 123.832377 75.7680362"></polygon>
            <polygon id="t15"
                     points="77.5398994 79.4146262 94.5138077 79.4146262 97.9857435 76.1732128 98.7572848 96.0268694"></polygon>
            <polygon id="t16" points="99.528826 86.3026294 99.528826 96.4320461 107.244239 105.751109"></polygon>
            <polygon id="t17" points="108.01578 106.156286 113.030799 108.992523 105.701156 109.397699"></polygon>
            <polygon id="t18" points="35.8766699 83.8715695 51.3074956 84.2767461 41.6632295 92.3802794"></polygon>
            <polygon id="t19" points="48.6071011 87.9233361 50.1501837 104.130403 42.0490002 93.5958094"></polygon>
            <polygon id="t20" points="50.1501837 99.2682827 54.0078901 107.371816 51.3074956 107.371816"></polygon>
            <polygon id="t21"
                     points="51.3074956 108.587346 54.0078901 108.587346 56.7082846 111.018406 49.764413 111.423583"></polygon>
            <polygon id="t22"
                     points="36.2624405 107.776993 38.5770644 107.776993 41.2774589 110.613229 34.3335873 110.613229"></polygon>
            <polygon id="t23" points="36.2624405 85.8974528 40.8916882 92.7854561 37.4197524 101.699343"></polygon>
            <polygon id="t24" points="39.7343763 97.647576 38.5770644 106.561463 36.2624405 106.561463"></polygon>
            <polygon id="t25" points="27.0039451 69.6903862 33.1762753 64.8282663 34.7193579 81.4405095"></polygon>
            <polygon id="t26"
                     points="34.3335873 64.0179129 56.7082846 61.9920296 51.3074956 83.0612161 35.8766699 82.6560395"></polygon>
            <polygon id="t27"
                     points="57.8655965 61.5868529 63.6521562 56.724733 68.2814039 79.0094495 52.4648075 82.6560395"></polygon>
            <polygon id="t28" points="64.8094681 56.724733 69.4387158 78.1990962 92.9707251 78.6042728"></polygon>
            <polygon id="t29" points="20.8316148 62.8023829 19.2885322 70.0955629 25.8466331 69.6903862"></polygon>
            <path d="M12.3446606,65.2334429 C12.9368185,65.1645629 19.6743028,63.2075596 19.6743028,63.2075596 L18.1312202,70.0955629 L9.64426609,73.7421529 C9.64426609,73.7421529 11.7525027,65.3023229 12.3446606,65.2334429 L12.3446606,65.2334429 Z"
                  id="t30"></path>
            <path d="M1.15731193,70.9059162 C1.15731193,70.9059162 1.16888505,70.8978127 1.19125975,70.8856574 L11.1873487,65.2334429 L8.10118352,74.9576829 C8.10118352,74.9576829 2.08779072,71.4488529 1.25298305,70.9626409 L1.15731193,70.9059162 Z"
                  id="t31"></path>
            <path d="M0.771541287,70.0955629 C0.903860618,70.0388382 3.85770644,68.4748562 3.85770644,68.4748562 L0,62.8023829 C0,62.8023829 0.639221956,70.1522876 0.771541287,70.0955629 L0.771541287,70.0955629 Z"
                  id="t32"></path>
        </g>
    </g>
</svg>
